Chivo-Black.ufo
<glyph name="exclam" format="1">
  <advance width="311"/>
  <unicode hex="0021"/>
  <outline>
    <contour>
      <point x="37" y="686" type="line"/>
      <point x="91" y="231" type="line"/>
      <point x="218" y="231" type="line"/>
      <point x="275" y="686" type="line"/>
    </contour>
    <contour>
      <point x="61" y="183" type="line"/>
      <point x="61" y="0" type="line"/>
      <point x="252" y="0" type="line"/>
      <point x="252" y="183" type="line"/>
    </contour>
  </outline>
</glyph>
<glyph name="dollar" format="1">
  <advance width="600"/>
  <unicode hex="0024"/>
  <outline>
    <contour>
      <point x="227" y="757" type="line"/>
      <point x="242" y="671" type="line"/>
      <point x="127" y="655"/>
      <point x="42" y="586"/>
      <point x="42" y="472" type="curve" smooth="yes"/>
      <point x="42" y="350"/>
      <point x="125" y="301"/>
      <point x="208" y="280" type="curve"/>
      <point x="287" y="262" type="line" smooth="yes"/>
      <point x="336" y="251"/>
      <point x="373" y="238"/>
      <point x="373" y="208" type="curve" smooth="yes"/>
      <point x="373" y="188"/>
      <point x="360" y="169"/>
      <point x="287" y="169" type="curve" smooth="yes"/>
      <point x="221" y="169"/>
      <point x="203" y="202"/>
      <point x="203" y="235" type="curve"/>
      <point x="204" y="246" type="line"/>
      <point x="29" y="246" type="line"/>
      <point x="28" y="242"/>
      <point x="28" y="238"/>
      <point x="28" y="234" type="curve" smooth="yes"/>
      <point x="28" y="224" type="line" smooth="yes"/>
      <point x="28" y="99"/>
      <point x="125" y="35"/>
      <point x="242" y="22" type="curve"/>
      <point x="227" y="-66" type="line"/>
      <point x="355" y="-66" type="line"/>
      <point x="340" y="21" type="line"/>
      <point x="479" y="32"/>
      <point x="568" y="100"/>
      <point x="568" y="241" type="curve" smooth="yes"/>
      <point x="568" y="355"/>
      <point x="484" y="401"/>
      <point x="400" y="420" type="curve"/>
      <point x="320" y="440" type="line" smooth="yes"/>
      <point x="271" y="452"/>
      <point x="233" y="463"/>
      <point x="233" y="495" type="curve" smooth="yes"/>
      <point x="233" y="518"/>
      <point x="257" y="534"/>
      <point x="308" y="534" type="curve" smooth="yes"/>
      <point x="363" y="534"/>
      <point x="383" y="504"/>
      <point x="383" y="473" type="curve" smooth="yes"/>
      <point x="383" y="469" type="line"/>
      <point x="556" y="469" type="line"/>
      <point x="556" y="480" type="line" smooth="yes"/>
      <point x="556" y="603"/>
      <point x="461" y="663"/>
      <point x="340" y="674" type="curve"/>
      <point x="355" y="757" type="line"/>
    </contour>
  </outline>
</glyph>
<glyph name="quotesingle" format="1">
  <advance width="231"/>
  <unicode hex="0027"/>
  <outline>
    <contour>
      <point x="38" y="686" type="line"/>
      <point x="38" y="539" type="line"/>
      <point x="85" y="396" type="line"/>
      <point x="146" y="396" type="line"/>
      <point x="193" y="539" type="line"/>
      <point x="193" y="686" type="line"/>
    </contour>
  </outline>
</glyph>
<glyph name="plus" format="1">
  <advance width="615"/>
  <unicode hex="002B"/>
  <outline>
    <contour>
      <point x="243" y="512" type="line"/>
      <point x="243" y="320" type="line"/>
      <point x="51" y="320" type="line"/>
      <point x="51" y="192" type="line"/>
      <point x="243" y="192" type="line"/>
      <point x="243" y="0" type="line"/>
      <point x="371" y="0" type="line"/>
      <point x="371" y="192" type="line"/>
      <point x="563" y="192" type="line"/>
      <point x="563" y="320" type="line"/>
      <point x="371" y="320" type="line"/>
      <point x="371" y="512" type="line"/>
    </contour>
  </outline>
</glyph>
<glyph name="zero" format="1">
  <advance width="615"/>
  <unicode hex="0030"/>
  <outline>
    <contour>
      <point x="285" y="696" type="line" smooth="yes"/>
      <point x="146" y="696"/>
      <point x="35" y="585"/>
      <point x="35" y="446" type="curve" smooth="yes"/>
      <point x="35" y="240" type="line" smooth="yes"/>
      <point x="35" y="101"/>
      <point x="146" y="-10"/>
      <point x="285" y="-10" type="curve" smooth="yes"/>
      <point x="330" y="-10" type="line" smooth="yes"/>
      <point x="469" y="-10"/>
      <point x="580" y="101"/>
      <point x="580" y="240" type="curve" smooth="yes"/>
      <point x="580" y="446" type="line" smooth="yes"/>
      <point x="580" y="585"/>
      <point x="469" y="696"/>
      <point x="330" y="696" type="curve" smooth="yes"/>
    </contour>
    <contour>
      <point x="349" y="552"/>
      <point x="382" y="516"/>
      <point x="382" y="472" type="curve" smooth="yes"/>
      <point x="382" y="215" type="line" smooth="yes"/>
      <point x="382" y="171"/>
      <point x="350" y="135"/>
      <point x="307" y="135" type="curve" smooth="yes"/>
      <point x="266" y="135"/>
      <point x="233" y="171"/>
      <point x="233" y="215" type="curve" smooth="yes"/>
      <point x="233" y="472" type="line" smooth="yes"/>
      <point x="233" y="516"/>
      <point x="265" y="552"/>
      <point x="308" y="552" type="curve" smooth="yes"/>
    </contour>
  </outline>
</glyph>
<glyph name="one" format="1">
  <advance width="615"/>
  <unicode hex="0031"/>
  <outline>
    <contour>
      <point x="354" y="696" type="line"/>
      <point x="280" y="646"/>
      <point x="162" y="593"/>
      <point x="73" y="588" type="curve"/>
      <point x="73" y="473" type="line"/>
      <point x="225" y="473" type="line"/>
      <point x="225" y="153" type="line"/>
      <point x="73" y="153" type="line"/>
      <point x="73" y="0" type="line"/>
      <point x="567" y="0" type="line"/>
      <point x="567" y="153" type="line"/>
      <point x="421" y="153" type="line"/>
      <point x="421" y="696" type="line"/>
    </contour>
  </outline>
</glyph>
<glyph name="two" format="1">
  <advance width="615"/>
  <unicode hex="0032"/>
  <outline>
    <contour>
      <point x="293" y="696" type="line" smooth="yes"/>
      <point x="130" y="696"/>
      <point x="38" y="592"/>
      <point x="38" y="461" type="curve" smooth="yes"/>
      <point x="38" y="442" type="line"/>
      <point x="214" y="442" type="line"/>
      <point x="214" y="470" type="line" smooth="yes"/>
      <point x="214" y="510"/>
      <point x="245" y="540"/>
      <point x="284" y="540" type="curve" smooth="yes"/>
      <point x="297" y="540" type="line" smooth="yes"/>
      <point x="336" y="540"/>
      <point x="367" y="509"/>
      <point x="367" y="470" type="curve" smooth="yes"/>
      <point x="367" y="433"/>
      <point x="352" y="396"/>
      <point x="313" y="365" type="curve" smooth="yes"/>
      <point x="115" y="209" type="line" smooth="yes"/>
      <point x="55" y="162"/>
      <point x="35" y="112"/>
      <point x="35" y="36" type="curve" smooth="yes"/>
      <point x="35" y="0" type="line"/>
      <point x="570" y="0" type="line"/>
      <point x="570" y="168" type="line"/>
      <point x="307" y="168" type="line"/>
      <point x="416" y="244" type="line" smooth="yes"/>
      <point x="514" y="312"/>
      <point x="569" y="372"/>
      <point x="569" y="474" type="curve" smooth="yes"/>
      <point x="569" y="604"/>
      <point x="472" y="696"/>
      <point x="324" y="696" type="curve" smooth="yes"/>
    </contour>
  </outline>
</glyph>
<glyph name="five" format="1">
  <advance width="615"/>
  <unicode hex="0035"/>
  <outline>
    <contour>
      <point x="89" y="686" type="line"/>
      <point x="60" y="303" type="line"/>
      <point x="218" y="281" type="line"/>
      <point x="230" y="290"/>
      <point x="246" y="315"/>
      <point x="289" y="315" type="curve" smooth="yes"/>
      <point x="303" y="315" type="line" smooth="yes"/>
      <point x="347" y="315"/>
      <point x="383" y="279"/>
      <point x="383" y="235" type="curve" smooth="yes"/>
      <point x="383" y="224" type="line" smooth="yes"/>
      <point x="383" y="180"/>
      <point x="347" y="144"/>
      <point x="303" y="144" type="curve" smooth="yes"/>
      <point x="286" y="144" type="line" smooth="yes"/>
      <point x="242" y="144"/>
      <point x="206" y="180"/>
      <point x="206" y="224" type="curve"/>
      <point x="30" y="224" type="line"/>
      <point x="30" y="94"/>
      <point x="128" y="-10"/>
      <point x="290" y="-10" type="curve" smooth="yes"/>
      <point x="320" y="-10" type="line" smooth="yes"/>
      <point x="473" y="-10"/>
      <point x="580" y="94"/>
      <point x="580" y="225" type="curve" smooth="yes"/>
      <point x="580" y="372"/>
      <point x="490" y="459"/>
      <point x="357" y="459" type="curve" smooth="yes"/>
      <point x="293" y="459"/>
      <point x="250" y="432"/>
      <point x="230" y="414" type="curve"/>
      <point x="238" y="516" type="line"/>
      <point x="529" y="516" type="line"/>
      <point x="529" y="686" type="line"/>
    </contour>
  </outline>
</glyph>
<glyph name="six" format="1">
  <advance width="615"/>
  <unicode hex="0036"/>
  <outline>
    <contour>
      <point x="299" y="696" type="line" smooth="yes"/>
      <point x="155" y="696"/>
      <point x="39" y="590"/>
      <point x="39" y="446" type="curve" smooth="yes"/>
      <point x="39" y="240" type="line" smooth="yes"/>
      <point x="39" y="96"/>
      <point x="155" y="-10"/>
      <point x="299" y="-10" type="curve" smooth="yes"/>
      <point x="327" y="-10" type="line" smooth="yes"/>
      <point x="471" y="-10"/>
      <point x="585" y="85"/>
      <point x="585" y="230" type="curve" smooth="yes"/>
      <point x="585" y="367"/>
      <point x="485" y="437"/>
      <point x="361" y="437" type="curve" smooth="yes"/>
      <point x="324" y="437"/>
      <point x="271" y="422"/>
      <point x="236" y="385" type="curve"/>
      <point x="236" y="471" type="line" smooth="yes"/>
      <point x="236" y="512"/>
      <point x="272" y="546"/>
      <point x="313" y="546" type="curve" smooth="yes"/>
      <point x="319" y="546" type="line" smooth="yes"/>
      <point x="360" y="546"/>
      <point x="390" y="512"/>
      <point x="390" y="471" type="curve" smooth="yes"/>
      <point x="390" y="466" type="line"/>
      <point x="568" y="466" type="line"/>
      <point x="568" y="618"/>
      <point x="456" y="696"/>
      <point x="327" y="696" type="curve" smooth="yes"/>
    </contour>
    <contour>
      <point x="358" y="321"/>
      <point x="392" y="287"/>
      <point x="392" y="246" type="curve" smooth="yes"/>
      <point x="392" y="205" type="line" smooth="yes"/>
      <point x="392" y="164"/>
      <point x="358" y="130"/>
      <point x="317" y="130" type="curve" smooth="yes"/>
      <point x="311" y="130" type="line" smooth="yes"/>
      <point x="270" y="130"/>
      <point x="236" y="164"/>
      <point x="236" y="205" type="curve" smooth="yes"/>
      <point x="236" y="246" type="line" smooth="yes"/>
      <point x="236" y="287"/>
      <point x="270" y="321"/>
      <point x="311" y="321" type="curve" smooth="yes"/>
      <point x="317" y="321" type="line" smooth="yes"/>
    </contour>
  </outline>
</glyph>
<glyph name="colon" format="1">
  <advance width="309"/>
  <unicode hex="003A"/>
  <outline>
    <contour>
      <point x="59" y="511" type="line"/>
      <point x="59" y="328" type="line"/>
      <point x="250" y="328" type="line"/>
      <point x="250" y="511" type="line"/>
    </contour>
    <contour>
      <point x="59" y="183" type="line"/>
      <point x="59" y="0" type="line"/>
      <point x="250" y="0" type="line"/>
      <point x="250" y="183" type="line"/>
    </contour>
  </outline>
</glyph>
<glyph name="semicolon" format="1">
  <advance width="308"/>
  <unicode hex="003B"/>
  <outline>
    <contour>
      <point x="59" y="183" type="line"/>
      <point x="59" y="0" type="line"/>
      <point x="143" y="0" type="line"/>
      <point x="106" y="-165" type="line"/>
      <point x="200" y="-165" type="line"/>
      <point x="250" y="22" type="line"/>
      <point x="250" y="183" type="line"/>
    </contour>
    <contour>
      <point x="59" y="511" type="line"/>
      <point x="59" y="328" type="line"/>
      <point x="250" y="328" type="line"/>
      <point x="250" y="511" type="line"/>
    </contour>
  </outline>
</glyph>
<glyph name="equal" format="1">
  <advance width="615"/>
  <unicode hex="003D"/>
  <outline>
    <contour>
      <point x="51" y="429" type="line"/>
      <point x="51" y="301" type="line"/>
      <point x="563" y="301" type="line"/>
      <point x="563" y="429" type="line"/>
    </contour>
    <contour>
      <point x="51" y="209" type="line"/>
      <point x="51" y="81" type="line"/>
      <point x="563" y="81" type="line"/>
      <point x="563" y="209" type="line"/>
    </contour>
  </outline>
</glyph>
<glyph name="greater" format="1">
  <advance width="615"/>
  <unicode hex="003E"/>
  <outline>
    <contour>
      <point x="61" y="382" type="line"/>
      <point x="409" y="254" type="line"/>
      <point x="61" y="127" type="line"/>
      <point x="61" y="-11" type="line"/>
      <point x="570" y="185" type="line"/>
      <point x="570" y="324" type="line"/>
      <point x="61" y="521" type="line"/>
    </contour>
  </outline>
</glyph>
<glyph name="C" format="1">
  <advance width="683"/>
  <unicode hex="0043"/>
  <outline>
    <contour>
      <point x="341" y="696" type="line" smooth="yes"/>
      <point x="175" y="696"/>
      <point x="31" y="576"/>
      <point x="31" y="396" type="curve" smooth="yes"/>
      <point x="31" y="290" type="line" smooth="yes"/>
      <point x="31" y="100"/>
      <point x="173" y="-10"/>
      <point x="349" y="-10" type="curve" smooth="yes"/>
      <point x="377" y="-10" type="line" smooth="yes"/>
      <point x="539" y="-10"/>
      <point x="659" y="100"/>
      <point x="659" y="280" type="curve"/>
      <point x="471" y="280" type="line"/>
      <point x="471" y="247" type="line" smooth="yes"/>
      <point x="471" y="183"/>
      <point x="427" y="147"/>
      <point x="371" y="147" type="curve" smooth="yes"/>
      <point x="357" y="147" type="line" smooth="yes"/>
      <point x="301" y="147"/>
      <point x="257" y="191"/>
      <point x="257" y="247" type="curve" smooth="yes"/>
      <point x="257" y="440" type="line" smooth="yes"/>
      <point x="257" y="496"/>
      <point x="301" y="540"/>
      <point x="357" y="540" type="curve" smooth="yes"/>
      <point x="362" y="540" type="line" smooth="yes"/>
      <point x="418" y="540"/>
      <point x="462" y="503"/>
      <point x="462" y="440" type="curve" smooth="yes"/>
      <point x="462" y="405" type="line"/>
      <point x="659" y="405" type="line"/>
      <point x="659" y="600"/>
      <point x="532" y="696"/>
      <point x="369" y="696" type="curve" smooth="yes"/>
    </contour>
    <contour>
      <point x="342" y="686" type="move" name="top"/>
    </contour>
    <contour>
      <point x="342" y="0" type="move" name="bottom"/>
    </contour>
  </outline>
</glyph>
<glyph name="F" format="1">
  <advance width="562"/>
  <unicode hex="0046"/>
  <outline>
    <contour>
      <point x="553" y="686" type="line"/>
      <point x="57" y="686" type="line"/>
      <point x="57" y="0" type="line"/>
      <point x="262" y="0" type="line"/>
      <point x="262" y="257" type="line"/>
      <point x="514" y="257" type="line"/>
      <point x="514" y="411" type="line"/>
      <point x="262" y="411" type="line"/>
      <point x="262" y="523" type="line"/>
      <point x="533" y="523" type="line"/>
    </contour>
  </outline>
</glyph>
<glyph name="H" format="1">
  <advance width="697"/>
  <unicode hex="0048"/>
  <outline>
    <contour>
      <point x="640" y="686" type="line"/>
      <point x="429" y="686" type="line"/>
      <point x="429" y="433" type="line"/>
      <point x="267" y="433" type="line"/>
      <point x="267" y="686" type="line"/>
      <point x="57" y="686" type="line"/>
      <point x="57" y="0" type="line"/>
      <point x="268" y="0" type="line"/>
      <point x="268" y="267" type="line"/>
      <point x="430" y="267" type="line"/>
      <point x="430" y="0" type="line"/>
      <point x="640" y="0" type="line"/>
    </contour>
    <contour>
      <point x="349" y="343" type="move" name="center"/>
    </contour>
    <contour>
      <point x="349" y="686" type="move" name="top"/>
    </contour>
  </outline>
</glyph>
<glyph name="R" format="1">
  <advance width="682"/>
  <unicode hex="0052"/>
  <outline>
    <contour>
      <point x="57" y="686" type="line"/>
      <point x="57" y="0" type="line"/>
      <point x="262" y="0" type="line"/>
      <point x="262" y="266" type="line"/>
      <point x="320" y="266" type="line" smooth="yes"/>
      <point x="405" y="266"/>
      <point x="409" y="183"/>
      <point x="409" y="119" type="curve" smooth="yes"/>
      <point x="409" y="23"/>
      <point x="459" y="-10"/>
      <point x="550" y="-10" type="curve" smooth="yes"/>
      <point x="589" y="-10"/>
      <point x="634" y="-6"/>
      <point x="670" y="9" type="curve"/>
      <point x="670" y="50" type="line"/>
      <point x="620" y="63"/>
      <point x="619" y="132"/>
      <point x="619" y="173" type="curve" smooth="yes"/>
      <point x="619" y="256"/>
      <point x="586" y="326"/>
      <point x="509" y="349" type="curve"/>
      <point x="509" y="354" type="line"/>
      <point x="578" y="367"/>
      <point x="632" y="443"/>
      <point x="632" y="516" type="curve" smooth="yes"/>
      <point x="632" y="619"/>
      <point x="539" y="686"/>
      <point x="442" y="686" type="curve" smooth="yes"/>
    </contour>
    <contour>
      <point x="368" y="529" type="line" smooth="yes"/>
      <point x="396" y="529"/>
      <point x="418" y="507"/>
      <point x="418" y="479" type="curve" smooth="yes"/>
      <point x="418" y="469" type="line" smooth="yes"/>
      <point x="418" y="441"/>
      <point x="396" y="419"/>
      <point x="368" y="419" type="curve" smooth="yes"/>
      <point x="262" y="419" type="line"/>
      <point x="262" y="529" type="line"/>
    </contour>
    <contour>
      <point x="341" y="686" type="move" name="top"/>
    </contour>
    <contour>
      <point x="341" y="0" type="move" name="bottom"/>
    </contour>
  </outline>
</glyph>
<glyph name="S" format="1">
  <advance width="651"/>
  <unicode hex="0053"/>
  <outline>
    <contour>
      <point x="171" y="696"/>
      <point x="40" y="623"/>
      <point x="40" y="478" type="curve" smooth="yes"/>
      <point x="40" y="209"/>
      <point x="407" y="291"/>
      <point x="407" y="194" type="curve" smooth="yes"/>
      <point x="407" y="172"/>
      <point x="393" y="151"/>
      <point x="312" y="151" type="curve" smooth="yes"/>
      <point x="240" y="151"/>
      <point x="219" y="186"/>
      <point x="219" y="222" type="curve" smooth="yes"/>
      <point x="219" y="227"/>
      <point x="219" y="231"/>
      <point x="220" y="234" type="curve"/>
      <point x="26" y="234" type="line"/>
      <point x="25" y="230"/>
      <point x="25" y="226"/>
      <point x="25" y="222" type="curve" smooth="yes"/>
      <point x="25" y="210" type="line" smooth="yes"/>
      <point x="25" y="58"/>
      <point x="166" y="-10"/>
      <point x="318" y="-10" type="curve" smooth="yes"/>
      <point x="500" y="-10"/>
      <point x="623" y="59"/>
      <point x="623" y="229" type="curve" smooth="yes"/>
      <point x="623" y="352"/>
      <point x="530" y="401"/>
      <point x="437" y="422" type="curve" smooth="yes"/>
      <point x="348" y="442" type="line" smooth="yes"/>
      <point x="293" y="454"/>
      <point x="252" y="469"/>
      <point x="252" y="502" type="curve" smooth="yes"/>
      <point x="252" y="527"/>
      <point x="278" y="544"/>
      <point x="335" y="544" type="curve" smooth="yes"/>
      <point x="395" y="544"/>
      <point x="418" y="513"/>
      <point x="418" y="478" type="curve" smooth="yes"/>
      <point x="418" y="474" type="line"/>
      <point x="610" y="474" type="line"/>
      <point x="610" y="486" type="line" smooth="yes"/>
      <point x="610" y="631"/>
      <point x="484" y="696"/>
      <point x="331" y="696" type="curve" smooth="yes"/>
    </contour>
    <contour>
      <point x="326" y="686" type="move" name="top"/>
    </contour>
    <contour>
      <point x="326" y="0" type="move" name="bottom"/>
    </contour>
  </outline>
</glyph>
<glyph name="T" format="1">
  <advance width="586"/>
  <unicode hex="0054"/>
  <outline>
    <contour>
      <point x="571" y="686" type="line"/>
      <point x="15" y="686" type="line"/>
      <point x="15" y="521" type="line"/>
      <point x="189" y="521" type="line"/>
      <point x="189" y="0" type="line"/>
      <point x="397" y="0" type="line"/>
      <point x="397" y="521" type="line"/>
      <point x="571" y="521" type="line"/>
    </contour>
    <contour>
      <point x="293" y="343" type="move" name="center"/>
    </contour>
    <contour>
      <point x="293" y="0" type="move" name="bottom"/>
    </contour>
    <contour>
      <point x="293" y="686" type="move" name="top"/>
    </contour>
  </outline>
</glyph>
<glyph name="U" format="1">
  <advance width="687"/>
  <unicode hex="0055"/>
  <outline>
    <contour>
      <point x="635" y="686" type="line"/>
      <point x="425" y="686" type="line"/>
      <point x="425" y="221" type="line" smooth="yes"/>
      <point x="425" y="177"/>
      <point x="389" y="146"/>
      <point x="344" y="146" type="curve" smooth="yes"/>
      <point x="299" y="146"/>
      <point x="263" y="177"/>
      <point x="263" y="221" type="curve" smooth="yes"/>
      <point x="263" y="686" type="line"/>
      <point x="52" y="686" type="line"/>
      <point x="52" y="218" type="line" smooth="yes"/>
      <point x="52" y="79"/>
      <point x="159" y="-10"/>
      <point x="322" y="-10" type="curve" smooth="yes"/>
      <point x="365" y="-10" type="line" smooth="yes"/>
      <point x="528" y="-10"/>
      <point x="635" y="79"/>
      <point x="635" y="218" type="curve" smooth="yes"/>
    </contour>
    <contour>
      <point x="448" y="10" type="move" name="ogonek"/>
    </contour>
    <contour>
      <point x="344" y="686" type="move" name="top"/>
    </contour>
  </outline>
</glyph>
<glyph name="backslash" format="1">
  <advance width="652"/>
  <unicode hex="005C"/>
  <outline>
    <contour>
      <point x="15" y="686" type="line"/>
      <point x="504" y="-171" type="line"/>
      <point x="636" y="-171" type="line"/>
      <point x="146" y="686" type="line"/>
    </contour>
  </outline>
</glyph>
<glyph name="bracketright" format="1">
  <advance width="318"/>
  <unicode hex="005D"/>
  <outline>
    <contour>
      <point x="24" y="686" type="line"/>
      <point x="24" y="603" type="line"/>
      <point x="112" y="603" type="line"/>
      <point x="112" y="-78" type="line"/>
      <point x="24" y="-78" type="line"/>
      <point x="24" y="-161" type="line"/>
      <point x="261" y="-161" type="line"/>
      <point x="261" y="686" type="line"/>
    </contour>
  </outline>
</glyph>
<glyph name="h" format="1">
  <advance width="599"/>
  <unicode hex="0068"/>
  <outline>
    <contour>
      <point x="248" y="720" type="line"/>
      <point x="50" y="720" type="line"/>
      <point x="50" y="0" type="line"/>
      <point x="248" y="0" type="line"/>
      <point x="248" y="320" type="line" smooth="yes"/>
      <point x="248" y="353"/>
      <point x="272" y="380"/>
      <point x="301" y="380" type="curve" smooth="yes"/>
      <point x="330" y="380"/>
      <point x="354" y="353"/>
      <point x="354" y="320" type="curve" smooth="yes"/>
      <point x="354" y="0" type="line"/>
      <point x="552" y="0" type="line"/>
      <point x="552" y="371" type="line" smooth="yes"/>
      <point x="552" y="454"/>
      <point x="485" y="521"/>
      <point x="402" y="521" type="curve" smooth="yes"/>
      <point x="374" y="521" type="line" smooth="yes"/>
      <point x="305" y="521"/>
      <point x="267" y="479"/>
      <point x="248" y="451" type="curve"/>
    </contour>
    <contour>
      <point x="300" y="256" type="move" name="center"/>
    </contour>
    <contour>
      <point x="153" y="686" type="move" name="top"/>
    </contour>
  </outline>
</glyph>
<glyph name="j" format="1">
  <advance width="299"/>
  <unicode hex="006A"/>
  <outline>
    <contour>
      <point x="50" y="510" type="line"/>
      <point x="50" y="4" type="line" smooth="yes"/>
      <point x="50" y="-55"/>
      <point x="22" y="-65"/>
      <point x="-6" y="-65" type="curve" smooth="yes"/>
      <point x="-21" y="-65"/>
      <point x="-53" y="-60"/>
      <point x="-68" y="-53" type="curve"/>
      <point x="-68" y="-165" type="line"/>
      <point x="-36" y="-178"/>
      <point x="32" y="-187"/>
      <point x="66" y="-187" type="curve" smooth="yes"/>
      <point x="175" y="-187"/>
      <point x="249" y="-134"/>
      <point x="249" y="-26" type="curve" smooth="yes"/>
      <point x="249" y="510" type="line"/>
    </contour>
    <contour>
      <point x="50" y="720" type="line"/>
      <point x="50" y="577" type="line"/>
      <point x="249" y="577" type="line"/>
      <point x="249" y="720" type="line"/>
    </contour>
  </outline>
</glyph>
<glyph name="p" format="1">
  <advance width="601"/>
  <unicode hex="0070"/>
  <outline>
    <contour>
      <point x="294" y="521"/>
      <point x="252" y="486"/>
      <point x="226" y="452" type="curve"/>
      <point x="208" y="511" type="line"/>
      <point x="50" y="511" type="line"/>
      <point x="50" y="-181" type="line"/>
      <point x="248" y="-181" type="line"/>
      <point x="248" y="53" type="line"/>
      <point x="269" y="18"/>
      <point x="309" y="-10"/>
      <point x="380" y="-10" type="curve" smooth="yes"/>
      <point x="487" y="-10"/>
      <point x="573" y="75"/>
      <point x="573" y="250" type="curve" smooth="yes"/>
      <point x="573" y="261" type="line" smooth="yes"/>
      <point x="573" y="436"/>
      <point x="476" y="521"/>
      <point x="355" y="521" type="curve" smooth="yes"/>
    </contour>
    <contour>
      <point x="345" y="400"/>
      <point x="372" y="369"/>
      <point x="372" y="330" type="curve" smooth="yes"/>
      <point x="372" y="185" type="line" smooth="yes"/>
      <point x="372" y="146"/>
      <point x="345" y="115"/>
      <point x="310" y="115" type="curve" smooth="yes"/>
      <point x="275" y="115"/>
      <point x="248" y="146"/>
      <point x="248" y="185" type="curve" smooth="yes"/>
      <point x="248" y="330" type="line" smooth="yes"/>
      <point x="248" y="369"/>
      <point x="275" y="400"/>
      <point x="310" y="400" type="curve" smooth="yes"/>
    </contour>
  </outline>
</glyph>
<glyph name="r" format="1">
  <advance width="506"/>
  <unicode hex="0072"/>
  <outline>
    <contour>
      <point x="272" y="521"/>
      <point x="227" y="452"/>
      <point x="220" y="437" type="curve"/>
      <point x="198" y="511" type="line"/>
      <point x="50" y="511" type="line"/>
      <point x="50" y="0" type="line"/>
      <point x="243" y="0" type="line"/>
      <point x="243" y="328" type="line" smooth="yes"/>
      <point x="243" y="356"/>
      <point x="262" y="378"/>
      <point x="286" y="378" type="curve" smooth="yes"/>
      <point x="309" y="378"/>
      <point x="328" y="356"/>
      <point x="328" y="328" type="curve" smooth="yes"/>
      <point x="328" y="304" type="line"/>
      <point x="490" y="304" type="line"/>
      <point x="492" y="329" type="line" smooth="yes"/>
      <point x="493" y="344"/>
      <point x="494" y="359"/>
      <point x="494" y="367" type="curve" smooth="yes"/>
      <point x="494" y="384" type="line" smooth="yes"/>
      <point x="494" y="468"/>
      <point x="444" y="521"/>
      <point x="355" y="521" type="curve" smooth="yes"/>
    </contour>
    <contour>
      <point x="149" y="511" type="move" name="top"/>
    </contour>
    <contour>
      <point x="147" y="0" type="move" name="bottom"/>
    </contour>
  </outline>
</glyph>
<glyph name="t" format="1">
  <advance width="419"/>
  <unicode hex="0074"/>
  <outline>
    <contour>
      <point x="156" y="674" type="line"/>
      <point x="87" y="511" type="line"/>
      <point x="23" y="511" type="line"/>
      <point x="23" y="369" type="line"/>
      <point x="79" y="369" type="line"/>
      <point x="79" y="130" type="line" smooth="yes"/>
      <point x="79" y="22"/>
      <point x="154" y="-11"/>
      <point x="262" y="-11" type="curve" smooth="yes"/>
      <point x="296" y="-11"/>
      <point x="363" y="-3"/>
      <point x="396" y="11" type="curve"/>
      <point x="396" y="123" type="line"/>
      <point x="380" y="116"/>
      <point x="349" y="111"/>
      <point x="334" y="111" type="curve" smooth="yes"/>
      <point x="306" y="111"/>
      <point x="277" y="121"/>
      <point x="277" y="180" type="curve" smooth="yes"/>
      <point x="277" y="369" type="line"/>
      <point x="397" y="369" type="line"/>
      <point x="397" y="511" type="line"/>
      <point x="277" y="511" type="line"/>
      <point x="277" y="674" type="line"/>
    </contour>
    <contour>
      <point x="178" y="256" type="move" name="center"/>
    </contour>
    <contour>
      <point x="210" y="0" type="move" name="bottom"/>
    </contour>
    <contour>
      <point x="549" y="686" type="move" name="topright"/>
    </contour>
  </outline>
</glyph>
<glyph name="x" format="1">
  <advance width="585"/>
  <unicode hex="0078"/>
  <outline>
    <contour>
      <point x="366" y="511" type="line"/>
      <point x="304" y="393" type="line"/>
      <point x="300" y="393" type="line"/>
      <point x="238" y="511" type="line"/>
      <point x="11" y="511" type="line"/>
      <point x="163" y="270" type="line"/>
      <point x="-7" y="0" type="line"/>
      <point x="206" y="0" type="line"/>
      <point x="283" y="143" type="line"/>
      <point x="287" y="143" type="line"/>
      <point x="363" y="0" type="line"/>
      <point x="590" y="0" type="line"/>
      <point x="423" y="265" type="line"/>
      <point x="579" y="511" type="line"/>
    </contour>
  </outline>
</glyph>
<glyph name="braceright" format="1">
  <advance width="343"/>
  <unicode hex="007D"/>
  <outline>
    <contour>
      <point x="23" y="686" type="line"/>
      <point x="23" y="618" type="line"/>
      <point x="51" y="618"/>
      <point x="96" y="614"/>
      <point x="99" y="577" type="curve"/>
      <point x="109" y="371" type="line" smooth="yes"/>
      <point x="112" y="306"/>
      <point x="142" y="268"/>
      <point x="210" y="268" type="curve"/>
      <point x="210" y="259" type="line"/>
      <point x="142" y="259"/>
      <point x="112" y="221"/>
      <point x="109" y="156" type="curve" smooth="yes"/>
      <point x="99" y="-49" type="line"/>
      <point x="96" y="-87"/>
      <point x="52" y="-91"/>
      <point x="23" y="-91" type="curve"/>
      <point x="23" y="-159" type="line"/>
      <point x="104" y="-159" type="line" smooth="yes"/>
      <point x="172" y="-159"/>
      <point x="245" y="-124"/>
      <point x="245" y="-47" type="curve" smooth="yes"/>
      <point x="245" y="169" type="line" smooth="yes"/>
      <point x="245" y="209"/>
      <point x="286" y="224"/>
      <point x="321" y="224" type="curve"/>
      <point x="321" y="303" type="line"/>
      <point x="284" y="303"/>
      <point x="245" y="320"/>
      <point x="245" y="360" type="curve" smooth="yes"/>
      <point x="245" y="574" type="line" smooth="yes"/>
      <point x="245" y="651"/>
      <point x="172" y="686"/>
      <point x="104" y="686" type="curve" smooth="yes"/>
    </contour>
  </outline>
</glyph>
<glyph name="cent" format="1">
  <advance width="579"/>
  <unicode hex="00A2"/>
  <outline>
    <contour>
      <point x="233" y="694" type="line"/>
      <point x="250" y="605" type="line"/>
      <point x="129" y="589"/>
      <point x="32" y="486"/>
      <point x="32" y="362" type="curve" smooth="yes"/>
      <point x="32" y="321" type="line" smooth="yes"/>
      <point x="32" y="198"/>
      <point x="130" y="94"/>
      <point x="250" y="78" type="curve"/>
      <point x="233" y="-10" type="line"/>
      <point x="364" y="-10" type="line"/>
      <point x="349" y="78" type="line"/>
      <point x="474" y="90"/>
      <point x="551" y="165"/>
      <point x="551" y="293" type="curve"/>
      <point x="393" y="293" type="line"/>
      <point x="393" y="267" type="line" smooth="yes"/>
      <point x="393" y="228"/>
      <point x="365" y="197"/>
      <point x="326" y="197" type="curve" smooth="yes"/>
      <point x="314" y="197" type="line" smooth="yes"/>
      <point x="275" y="197"/>
      <point x="244" y="228"/>
      <point x="244" y="267" type="curve" smooth="yes"/>
      <point x="244" y="416" type="line" smooth="yes"/>
      <point x="244" y="455"/>
      <point x="274" y="486"/>
      <point x="313" y="486" type="curve" smooth="yes"/>
      <point x="352" y="486"/>
      <point x="382" y="455"/>
      <point x="382" y="416" type="curve" smooth="yes"/>
      <point x="382" y="390" type="line"/>
      <point x="551" y="390" type="line"/>
      <point x="551" y="505"/>
      <point x="480" y="590"/>
      <point x="349" y="605" type="curve"/>
      <point x="362" y="694" type="line"/>
    </contour>
  </outline>
</glyph>
<glyph name="yen" format="1">
  <advance width="710"/>
  <unicode hex="00A5"/>
  <outline>
    <contour>
      <point x="471" y="686" type="line"/>
      <point x="366" y="461" type="line"/>
      <point x="361" y="461" type="line"/>
      <point x="258" y="686" type="line"/>
      <point x="22" y="686" type="line"/>
      <point x="145" y="457" type="line"/>
      <point x="68" y="457" type="line"/>
      <point x="68" y="364" type="line"/>
      <point x="195" y="364" type="line"/>
      <point x="221" y="317" type="line"/>
      <point x="68" y="317" type="line"/>
      <point x="68" y="224" type="line"/>
      <point x="250" y="224" type="line"/>
      <point x="250" y="0" type="line"/>
      <point x="459" y="0" type="line"/>
      <point x="459" y="224" type="line"/>
      <point x="647" y="224" type="line"/>
      <point x="647" y="317" type="line"/>
      <point x="488" y="317" type="line"/>
      <point x="514" y="364" type="line"/>
      <point x="647" y="364" type="line"/>
      <point x="647" y="457" type="line"/>
      <point x="563" y="457" type="line"/>
      <point x="686" y="686" type="line"/>
    </contour>
  </outline>
</glyph>
<glyph name="brokenbar" format="1">
  <advance width="272"/>
  <unicode hex="00A6"/>
  <outline>
    <contour>
      <point x="61" y="686" type="line"/>
      <point x="61" y="412" type="line"/>
      <point x="211" y="412" type="line"/>
      <point x="211" y="686" type="line"/>
    </contour>
    <contour>
      <point x="61" y="274" type="line"/>
      <point x="61" y="0" type="line"/>
      <point x="211" y="0" type="line"/>
      <point x="211" y="274" type="line"/>
    </contour>
  </outline>
</glyph>
<glyph name="ordfeminine" format="1">
  <advance width="420"/>
  <unicode hex="00AA"/>
  <outline>
    <contour>
      <point x="187" y="695" type="line" smooth="yes"/>
      <point x="99" y="695"/>
      <point x="43" y="655"/>
      <point x="43" y="603" type="curve"/>
      <point x="44" y="594" type="line"/>
      <point x="158" y="594" type="line"/>
      <point x="158" y="615"/>
      <point x="180" y="625"/>
      <point x="196" y="625" type="curve" smooth="yes"/>
      <point x="219" y="625"/>
      <point x="235" y="612"/>
      <point x="235" y="589" type="curve" smooth="yes"/>
      <point x="235" y="572" type="line"/>
      <point x="111" y="572"/>
      <point x="34" y="552"/>
      <point x="34" y="468" type="curve" smooth="yes"/>
      <point x="34" y="386"/>
      <point x="93" y="376"/>
      <point x="142" y="376" type="curve" smooth="yes"/>
      <point x="191" y="376"/>
      <point x="220" y="401"/>
      <point x="241" y="425" type="curve"/>
      <point x="248" y="396"/>
      <point x="276" y="376"/>
      <point x="329" y="376" type="curve" smooth="yes"/>
      <point x="358" y="376"/>
      <point x="377" y="382"/>
      <point x="390" y="390" type="curve"/>
      <point x="390" y="454" type="line"/>
      <point x="382" y="451" type="line" smooth="yes"/>
      <point x="377" y="450"/>
      <point x="372" y="449"/>
      <point x="369" y="449" type="curve" smooth="yes"/>
      <point x="361" y="449"/>
      <point x="350" y="455"/>
      <point x="350" y="471" type="curve" smooth="yes"/>
      <point x="350" y="597" type="line" smooth="yes"/>
      <point x="350" y="653"/>
      <point x="304" y="695"/>
      <point x="207" y="695" type="curve" smooth="yes"/>
    </contour>
    <contour>
      <point x="235" y="491" type="line" smooth="yes"/>
      <point x="235" y="464"/>
      <point x="217" y="449"/>
      <point x="194" y="449" type="curve" smooth="yes"/>
      <point x="175" y="449"/>
      <point x="158" y="454"/>
      <point x="158" y="477" type="curve" smooth="yes"/>
      <point x="158" y="500"/>
      <point x="180" y="517"/>
      <point x="235" y="517" type="curve"/>
    </contour>
  </outline>
</glyph>
<glyph name="guillemetleft" format="1">
  <advance width="442"/>
  <unicode hex="00AB"/>
  <outline>
    <contour>
      <point x="331" y="511" type="line"/>
      <point x="211" y="337" type="line"/>
      <point x="331" y="163" type="line"/>
      <point x="405" y="163" type="line"/>
      <point x="320" y="337" type="line"/>
      <point x="405" y="511" type="line"/>
    </contour>
    <contour>
      <point x="150" y="511" type="line"/>
      <point x="30" y="337" type="line"/>
      <point x="150" y="163" type="line"/>
      <point x="224" y="163" type="line"/>
      <point x="139" y="337" type="line"/>
      <point x="224" y="511" type="line"/>
    </contour>
  </outline>
</glyph>
<glyph name="macron" format="1">
  <advance width="460"/>
  <unicode hex="00AF"/>
  <outline>
    <contour>
      <point x="71" y="736" type="line"/>
      <point x="71" y="662" type="line"/>
      <point x="389" y="662" type="line"/>
      <point x="389" y="736" type="line"/>
    </contour>
    <contour>
      <point x="230" y="511" type="move" name="_top"/>
    </contour>
  </outline>
</glyph>
<glyph name="degree" format="1">
  <advance width="354"/>
  <unicode hex="00B0"/>
  <outline>
    <contour>
      <point x="94" y="696"/>
      <point x="27" y="628"/>
      <point x="27" y="546" type="curve" smooth="yes"/>
      <point x="27" y="463"/>
      <point x="94" y="396"/>
      <point x="177" y="396" type="curve" smooth="yes"/>
      <point x="259" y="396"/>
      <point x="327" y="463"/>
      <point x="327" y="546" type="curve" smooth="yes"/>
      <point x="327" y="628"/>
      <point x="259" y="696"/>
      <point x="177" y="696" type="curve" smooth="yes"/>
    </contour>
    <contour>
      <point x="210" y="607"/>
      <point x="238" y="580"/>
      <point x="238" y="545" type="curve" smooth="yes"/>
      <point x="238" y="510"/>
      <point x="211" y="483"/>
      <point x="176" y="483" type="curve" smooth="yes"/>
      <point x="141" y="483"/>
      <point x="114" y="510"/>
      <point x="114" y="545" type="curve" smooth="yes"/>
      <point x="114" y="580"/>
      <point x="143" y="607"/>
      <point x="175" y="607" type="curve" smooth="yes"/>
    </contour>
  </outline>
</glyph>
<glyph name="twosuperior" format="1">
  <advance width="370"/>
  <unicode hex="00B2"/>
  <outline>
    <contour>
      <point x="177" y="804" type="line" smooth="yes"/>
      <point x="89" y="804"/>
      <point x="40" y="747"/>
      <point x="40" y="678" type="curve" smooth="yes"/>
      <point x="40" y="668" type="line"/>
      <point x="135" y="668" type="line"/>
      <point x="135" y="683" type="line" smooth="yes"/>
      <point x="135" y="704"/>
      <point x="152" y="720"/>
      <point x="173" y="720" type="curve" smooth="yes"/>
      <point x="180" y="720" type="line" smooth="yes"/>
      <point x="201" y="720"/>
      <point x="217" y="704"/>
      <point x="217" y="683" type="curve" smooth="yes"/>
      <point x="217" y="662"/>
      <point x="207" y="643"/>
      <point x="188" y="626" type="curve" smooth="yes"/>
      <point x="82" y="534" type="line" smooth="yes"/>
      <point x="51" y="507"/>
      <point x="39" y="482"/>
      <point x="39" y="441" type="curve" smooth="yes"/>
      <point x="39" y="422" type="line"/>
      <point x="326" y="422" type="line"/>
      <point x="326" y="512" type="line"/>
      <point x="185" y="512" type="line"/>
      <point x="244" y="556" type="line"/>
      <point x="296" y="592"/>
      <point x="326" y="627"/>
      <point x="326" y="685" type="curve" smooth="yes"/>
      <point x="326" y="756"/>
      <point x="274" y="804"/>
      <point x="194" y="804" type="curve" smooth="yes"/>
    </contour>
  </outline>
</glyph>
<glyph name="threesuperior" format="1">
  <advance width="355"/>
  <unicode hex="00B3"/>
  <outline>
    <contour>
      <point x="168" y="801" type="line" smooth="yes"/>
      <point x="87" y="801"/>
      <point x="34" y="756"/>
      <point x="34" y="700" type="curve" smooth="yes"/>
      <point x="34" y="687" type="line"/>
      <point x="124" y="687" type="line"/>
      <point x="124" y="706"/>
      <point x="140" y="721"/>
      <point x="161" y="721" type="curve" smooth="yes"/>
      <point x="171" y="721" type="line" smooth="yes"/>
      <point x="192" y="721"/>
      <point x="208" y="704"/>
      <point x="208" y="685" type="curve" smooth="yes"/>
      <point x="208" y="654"/>
      <point x="192" y="644"/>
      <point x="171" y="644" type="curve" smooth="yes"/>
      <point x="124" y="644" type="line"/>
      <point x="124" y="578" type="line"/>
      <point x="179" y="578" type="line" smooth="yes"/>
      <point x="200" y="578"/>
      <point x="217" y="568"/>
      <point x="217" y="537" type="curve" smooth="yes"/>
      <point x="217" y="512"/>
      <point x="203" y="493"/>
      <point x="174" y="493" type="curve" smooth="yes"/>
      <point x="160" y="493" type="line" smooth="yes"/>
      <point x="129" y="493"/>
      <point x="117" y="510"/>
      <point x="117" y="531" type="curve"/>
      <point x="22" y="531" type="line"/>
      <point x="22" y="520" type="line" smooth="yes"/>
      <point x="22" y="460"/>
      <point x="70" y="413"/>
      <point x="162" y="413" type="curve" smooth="yes"/>
      <point x="184" y="413" type="line" smooth="yes"/>
      <point x="276" y="413"/>
      <point x="324" y="460"/>
      <point x="324" y="520" type="curve" smooth="yes"/>
      <point x="324" y="568"/>
      <point x="301" y="601"/>
      <point x="262" y="616" type="curve"/>
      <point x="293" y="629"/>
      <point x="313" y="662"/>
      <point x="313" y="701" type="curve" smooth="yes"/>
      <point x="313" y="757"/>
      <point x="263" y="801"/>
      <point x="184" y="801" type="curve" smooth="yes"/>
    </contour>
  </outline>
</glyph>
<glyph name="paragraph" format="1">
  <advance width="582"/>
  <unicode hex="00B6"/>
  <outline>
    <contour>
      <point x="239" y="686" type="line" smooth="yes"/>
      <point x="119" y="686"/>
      <point x="23" y="589"/>
      <point x="23" y="469" type="curve" smooth="yes"/>
      <point x="23" y="353"/>
      <point x="114" y="256"/>
      <point x="230" y="253" type="curve"/>
      <point x="230" y="-161" type="line"/>
      <point x="318" y="-161" type="line"/>
      <point x="318" y="607" type="line"/>
      <point x="394" y="607" type="line"/>
      <point x="394" y="-161" type="line"/>
      <point x="482" y="-161" type="line"/>
      <point x="482" y="607" type="line"/>
      <point x="548" y="607" type="line"/>
      <point x="548" y="686" type="line"/>
    </contour>
  </outline>
</glyph>
<glyph name="onehalf" format="1">
  <advance width="765"/>
  <unicode hex="00BD"/>
  <outline>
    <contour>
      <point x="562" y="686" type="line"/>
      <point x="142" y="0" type="line"/>
      <point x="231" y="0" type="line"/>
      <point x="648" y="686" type="line"/>
    </contour>
    <contour>
      <point x="185" y="686" type="line"/>
      <point x="145" y="660"/>
      <point x="82" y="631"/>
      <point x="34" y="628" type="curve"/>
      <point x="34" y="566" type="line"/>
      <point x="116" y="566" type="line"/>
      <point x="116" y="394" type="line"/>
      <point x="34" y="394" type="line"/>
      <point x="34" y="312" type="line"/>
      <point x="299" y="312" type="line"/>
      <point x="299" y="394" type="line"/>
      <point x="221" y="394" type="line"/>
      <point x="221" y="686" type="line"/>
    </contour>
    <contour>
      <point x="587" y="382" type="line" smooth="yes"/>
      <point x="499" y="382"/>
      <point x="450" y="325"/>
      <point x="450" y="256" type="curve" smooth="yes"/>
      <point x="450" y="246" type="line"/>
      <point x="545" y="246" type="line"/>
      <point x="545" y="261" type="line" smooth="yes"/>
      <point x="545" y="282"/>
      <point x="562" y="298"/>
      <point x="583" y="298" type="curve" smooth="yes"/>
      <point x="590" y="298" type="line" smooth="yes"/>
      <point x="611" y="298"/>
      <point x="627" y="282"/>
      <point x="627" y="261" type="curve" smooth="yes"/>
      <point x="627" y="240"/>
      <point x="617" y="221"/>
      <point x="598" y="204" type="curve" smooth="yes"/>
      <point x="492" y="112" type="line" smooth="yes"/>
      <point x="461" y="85"/>
      <point x="449" y="60"/>
      <point x="449" y="19" type="curve" smooth="yes"/>
      <point x="449" y="0" type="line"/>
      <point x="736" y="0" type="line"/>
      <point x="736" y="90" type="line"/>
      <point x="595" y="90" type="line"/>
      <point x="654" y="134" type="line"/>
      <point x="706" y="170"/>
      <point x="736" y="205"/>
      <point x="736" y="263" type="curve" smooth="yes"/>
      <point x="736" y="334"/>
      <point x="684" y="382"/>
      <point x="604" y="382" type="curve" smooth="yes"/>
    </contour>
  </outline>
</glyph>
<glyph name="questiondown" format="1">
  <advance width="577"/>
  <unicode hex="00BF"/>
  <outline>
    <contour>
      <point x="197" y="292" type="line"/>
      <point x="197" y="270" type="line"/>
      <point x="196" y="251"/>
      <point x="178" y="236"/>
      <point x="153" y="218" type="curve" smooth="yes"/>
      <point x="111" y="188" type="line" smooth="yes"/>
      <point x="68" y="157"/>
      <point x="26" y="107"/>
      <point x="26" y="30" type="curve" smooth="yes"/>
      <point x="26" y="-100"/>
      <point x="142" y="-186"/>
      <point x="266" y="-186" type="curve" smooth="yes"/>
      <point x="304" y="-186" type="line" smooth="yes"/>
      <point x="423" y="-186"/>
      <point x="555" y="-106"/>
      <point x="555" y="25" type="curve" smooth="yes"/>
      <point x="555" y="38"/>
      <point x="553" y="50"/>
      <point x="552" y="63" type="curve"/>
      <point x="368" y="63" type="line"/>
      <point x="370" y="53"/>
      <point x="371" y="43"/>
      <point x="371" y="32" type="curve" smooth="yes"/>
      <point x="371" y="-8"/>
      <point x="356" y="-48"/>
      <point x="304" y="-48" type="curve" smooth="yes"/>
      <point x="265" y="-48"/>
      <point x="238" y="-15"/>
      <point x="238" y="22" type="curve" smooth="yes"/>
      <point x="238" y="111"/>
      <point x="368" y="153"/>
      <point x="368" y="233" type="curve" smooth="yes"/>
      <point x="368" y="292" type="line"/>
    </contour>
    <contour>
      <point x="185" y="511" type="line"/>
      <point x="185" y="328" type="line"/>
      <point x="376" y="328" type="line"/>
      <point x="376" y="511" type="line"/>
    </contour>
  </outline>
</glyph>
<glyph name="Agrave" format="1">
  <advance width="709"/>
  <unicode hex="00C0"/>
  <outline>
    <contour>
      <point x="324" y="895" type="line"/>
      <point x="173" y="895" type="line"/>
      <point x="171" y="892" type="line"/>
      <point x="297" y="750" type="line"/>
      <point x="415" y="750" type="line"/>
    </contour>
    <contour>
      <point x="485" y="686" type="line"/>
      <point x="224" y="686" type="line"/>
      <point x="-5" y="0" type="line"/>
      <point x="197" y="0" type="line"/>
      <point x="237" y="122" type="line"/>
      <point x="455" y="122" type="line"/>
      <point x="496" y="0" type="line"/>
      <point x="714" y="0" type="line"/>
    </contour>
    <contour>
      <point x="349" y="475" type="line"/>
      <point x="407" y="267" type="line"/>
      <point x="285" y="267" type="line"/>
      <point x="344" y="475" type="line"/>
    </contour>
  </outline>
</glyph>
<glyph name="Eacute" format="1">
  <advance width="600"/>
  <unicode hex="00C9"/>
  <outline>
    <contour>
      <point x="492" y="895" type="line"/>
      <point x="341" y="895" type="line"/>
      <point x="250" y="750" type="line"/>
      <point x="368" y="750" type="line"/>
      <point x="494" y="892" type="line"/>
    </contour>
    <contour>
      <point x="572" y="686" type="line"/>
      <point x="57" y="686" type="line"/>
      <point x="57" y="0" type="line"/>
      <point x="572" y="0" type="line"/>
      <point x="552" y="164" type="line"/>
      <point x="263" y="164" type="line"/>
      <point x="263" y="275" type="line"/>
      <point x="541" y="275" type="line"/>
      <point x="541" y="428" type="line"/>
      <point x="263" y="428" type="line"/>
      <point x="263" y="528" type="line"/>
      <point x="552" y="528" type="line"/>
    </contour>
  </outline>
</glyph>
<glyph name="Ecircumflex" format="1">
  <advance width="600"/>
  <unicode hex="00CA"/>
  <outline>
    <contour>
      <point x="379" y="896" type="line"/>
      <point x="251" y="896" type="line"/>
      <point x="112" y="751" type="line"/>
      <point x="240" y="751" type="line"/>
      <point x="314" y="828" type="line"/>
      <point x="388" y="751" type="line"/>
      <point x="518" y="751" type="line"/>
    </contour>
    <contour>
      <point x="572" y="686" type="line"/>
      <point x="57" y="686" type="line"/>
      <point x="57" y="0" type="line"/>
      <point x="572" y="0" type="line"/>
      <point x="552" y="164" type="line"/>
      <point x="263" y="164" type="line"/>
      <point x="263" y="275" type="line"/>
      <point x="541" y="275" type="line"/>
      <point x="541" y="428" type="line"/>
      <point x="263" y="428" type="line"/>
      <point x="263" y="528" type="line"/>
      <point x="552" y="528" type="line"/>
    </contour>
  </outline>
</glyph>
<glyph name="Igrave" format="1">
  <advance width="446"/>
  <unicode hex="00CC"/>
  <outline>
    <contour>
      <point x="190" y="895" type="line"/>
      <point x="39" y="895" type="line"/>
      <point x="37" y="892" type="line"/>
      <point x="163" y="750" type="line"/>
      <point x="281" y="750" type="line"/>
    </contour>
    <contour>
      <point x="410" y="686" type="line"/>
      <point x="36" y="686" type="line"/>
      <point x="36" y="539" type="line"/>
      <point x="117" y="539" type="line"/>
      <point x="117" y="148" type="line"/>
      <point x="36" y="148" type="line"/>
      <point x="36" y="0" type="line"/>
      <point x="410" y="0" type="line"/>
      <point x="410" y="148" type="line"/>
      <point x="329" y="148" type="line"/>
      <point x="329" y="539" type="line"/>
      <point x="410" y="539" type="line"/>
    </contour>
  </outline>
</glyph>
<glyph name="Icircumflex" format="1">
  <advance width="446"/>
  <unicode hex="00CE"/>
  <outline>
    <contour>
      <point x="288" y="895" type="line"/>
      <point x="160" y="895" type="line"/>
      <point x="21" y="750" type="line"/>
      <point x="149" y="750" type="line"/>
      <point x="223" y="827" type="line"/>
      <point x="297" y="750" type="line"/>
      <point x="427" y="750" type="line"/>
    </contour>
    <contour>
      <point x="410" y="686" type="line"/>
      <point x="36" y="686" type="line"/>
      <point x="36" y="539" type="line"/>
      <point x="117" y="539" type="line"/>
      <point x="117" y="148" type="line"/>
      <point x="36" y="148" type="line"/>
      <point x="36" y="0" type="line"/>
      <point x="410" y="0" type="line"/>
      <point x="410" y="148" type="line"/>
      <point x="329" y="148" type="line"/>
      <point x="329" y="539" type="line"/>
      <point x="410" y="539" type="line"/>
    </contour>
  </outline>
</glyph>
<glyph name="Eth" format="1">
  <advance width="721"/>
  <unicode hex="00D0"/>
  <outline>
    <contour>
      <point x="83" y="686" type="line"/>
      <point x="83" y="391" type="line"/>
      <point x="7" y="391" type="line"/>
      <point x="7" y="297" type="line"/>
      <point x="83" y="297" type="line"/>
      <point x="83" y="0" type="line"/>
      <point x="392" y="0" type="line" smooth="yes"/>
      <point x="558" y="0"/>
      <point x="690" y="134"/>
      <point x="690" y="300" type="curve" smooth="yes"/>
      <point x="690" y="386" type="line" smooth="yes"/>
      <point x="690" y="552"/>
      <point x="558" y="686"/>
      <point x="392" y="686" type="curve" smooth="yes"/>
    </contour>
    <contour>
      <point x="372" y="530" type="line" smooth="yes"/>
      <point x="428" y="530"/>
      <point x="472" y="486"/>
      <point x="472" y="430" type="curve" smooth="yes"/>
      <point x="472" y="259" type="line" smooth="yes"/>
      <point x="472" y="203"/>
      <point x="428" y="159"/>
      <point x="372" y="159" type="curve" smooth="yes"/>
      <point x="292" y="159" type="line"/>
      <point x="292" y="297" type="line"/>
      <point x="371" y="297" type="line"/>
      <point x="371" y="391" type="line"/>
      <point x="292" y="391" type="line"/>
      <point x="292" y="530" type="line"/>
    </contour>
  </outline>
</glyph>
<glyph name="Ucircumflex" format="1">
  <advance width="687"/>
  <unicode hex="00DB"/>
  <outline>
    <contour>
      <point x="411" y="895" type="line"/>
      <point x="283" y="895" type="line"/>
      <point x="144" y="750" type="line"/>
      <point x="272" y="750" type="line"/>
      <point x="346" y="827" type="line"/>
      <point x="420" y="750" type="line"/>
      <point x="550" y="750" type="line"/>
    </contour>
    <contour>
      <point x="635" y="686" type="line"/>
      <point x="425" y="686" type="line"/>
      <point x="425" y="221" type="line" smooth="yes"/>
      <point x="425" y="177"/>
      <point x="389" y="146"/>
      <point x="344" y="146" type="curve" smooth="yes"/>
      <point x="299" y="146"/>
      <point x="263" y="177"/>
      <point x="263" y="221" type="curve" smooth="yes"/>
      <point x="263" y="686" type="line"/>
      <point x="52" y="686" type="line"/>
      <point x="52" y="218" type="line" smooth="yes"/>
      <point x="52" y="79"/>
      <point x="159" y="-10"/>
      <point x="322" y="-10" type="curve" smooth="yes"/>
      <point x="365" y="-10" type="line" smooth="yes"/>
      <point x="528" y="-10"/>
      <point x="635" y="79"/>
      <point x="635" y="218" type="curve" smooth="yes"/>
    </contour>
  </outline>
</glyph>
<glyph name="ae" format="1">
  <advance width="924"/>
  <unicode hex="00E6"/>
  <outline>
    <contour>
      <point x="623" y="521" type="line" smooth="yes"/>
      <point x="566" y="521"/>
      <point x="515" y="510"/>
      <point x="472" y="487" type="curve"/>
      <point x="433" y="508"/>
      <point x="380" y="521"/>
      <point x="311" y="521" type="curve" smooth="yes"/>
      <point x="278" y="521" type="line" smooth="yes"/>
      <point x="130" y="521"/>
      <point x="38" y="453"/>
      <point x="38" y="368" type="curve" smooth="yes"/>
      <point x="38" y="362"/>
      <point x="38" y="357"/>
      <point x="39" y="354" type="curve"/>
      <point x="229" y="354" type="line"/>
      <point x="229" y="358" type="line" smooth="yes"/>
      <point x="229" y="386"/>
      <point x="264" y="405"/>
      <point x="293" y="405" type="curve" smooth="yes"/>
      <point x="329" y="405"/>
      <point x="358" y="384"/>
      <point x="358" y="345" type="curve" smooth="yes"/>
      <point x="358" y="316" type="line"/>
      <point x="150" y="316"/>
      <point x="23" y="285"/>
      <point x="23" y="143" type="curve" smooth="yes"/>
      <point x="23" y="7"/>
      <point x="135" y="-10"/>
      <point x="217" y="-10" type="curve" smooth="yes"/>
      <point x="305" y="-10"/>
      <point x="382" y="18"/>
      <point x="427" y="58" type="curve"/>
      <point x="478" y="14"/>
      <point x="549" y="-10"/>
      <point x="630" y="-10" type="curve" smooth="yes"/>
      <point x="645" y="-10" type="line" smooth="yes"/>
      <point x="803" y="-10"/>
      <point x="894" y="79"/>
      <point x="894" y="192" type="curve"/>
      <point x="711" y="192" type="line"/>
      <point x="711" y="143"/>
      <point x="687" y="111"/>
      <point x="639" y="111" type="curve" smooth="yes"/>
      <point x="596" y="111"/>
      <point x="562" y="134"/>
      <point x="562" y="181" type="curve" smooth="yes"/>
      <point x="562" y="229" type="line"/>
      <point x="895" y="229" type="line"/>
      <point x="895" y="291" type="line" smooth="yes"/>
      <point x="895" y="424"/>
      <point x="805" y="521"/>
      <point x="648" y="521" type="curve" smooth="yes"/>
    </contour>
    <contour>
      <point x="670" y="400"/>
      <point x="700" y="369"/>
      <point x="700" y="330" type="curve" smooth="yes"/>
      <point x="700" y="316" type="line"/>
      <point x="562" y="316" type="line"/>
      <point x="562" y="330" type="line" smooth="yes"/>
      <point x="562" y="369"/>
      <point x="592" y="400"/>
      <point x="631" y="400" type="curve" smooth="yes"/>
    </contour>
    <contour>
      <point x="358" y="181" type="line" smooth="yes"/>
      <point x="358" y="138"/>
      <point x="326" y="111"/>
      <point x="290" y="111" type="curve" smooth="yes"/>
      <point x="259" y="111"/>
      <point x="230" y="120"/>
      <point x="230" y="159" type="curve" smooth="yes"/>
      <point x="230" y="198"/>
      <point x="266" y="225"/>
      <point x="358" y="225" type="curve"/>
    </contour>
    <contour>
      <point x="462" y="511" type="move" name="top"/>
    </contour>
  </outline>
</glyph>
<glyph name="ecircumflex" format="1">
  <advance width="601"/>
  <unicode hex="00EA"/>
  <outline>
    <contour>
      <point x="372" y="720" type="line"/>
      <point x="244" y="720" type="line"/>
      <point x="105" y="575" type="line"/>
      <point x="233" y="575" type="line"/>
      <point x="307" y="652" type="line"/>
      <point x="381" y="575" type="line"/>
      <point x="511" y="575" type="line"/>
    </contour>
    <contour>
      <point x="300" y="521" type="line" smooth="yes"/>
      <point x="141" y="521"/>
      <point x="27" y="431"/>
      <point x="27" y="271" type="curve" smooth="yes"/>
      <point x="27" y="240" type="line" smooth="yes"/>
      <point x="27" y="80"/>
      <point x="148" y="-10"/>
      <point x="307" y="-10" type="curve" smooth="yes"/>
      <point x="322" y="-10" type="line" smooth="yes"/>
      <point x="480" y="-10"/>
      <point x="571" y="79"/>
      <point x="571" y="192" type="curve"/>
      <point x="388" y="192" type="line"/>
      <point x="388" y="143"/>
      <point x="364" y="111"/>
      <point x="316" y="111" type="curve" smooth="yes"/>
      <point x="273" y="111"/>
      <point x="239" y="134"/>
      <point x="239" y="181" type="curve" smooth="yes"/>
      <point x="239" y="229" type="line"/>
      <point x="572" y="229" type="line"/>
      <point x="572" y="291" type="line" smooth="yes"/>
      <point x="572" y="424"/>
      <point x="482" y="521"/>
      <point x="325" y="521" type="curve" smooth="yes"/>
    </contour>
    <contour>
      <point x="347" y="400"/>
      <point x="377" y="369"/>
      <point x="377" y="330" type="curve" smooth="yes"/>
      <point x="377" y="316" type="line"/>
      <point x="239" y="316" type="line"/>
      <point x="239" y="330" type="line" smooth="yes"/>
      <point x="239" y="369"/>
      <point x="269" y="400"/>
      <point x="308" y="400" type="curve" smooth="yes"/>
    </contour>
  </outline>
</glyph>
<glyph name="igrave" format="1">
  <advance width="297"/>
  <unicode hex="00EC"/>
  <outline>
    <contour>
      <point x="119" y="720" type="line"/>
      <point x="-32" y="720" type="line"/>
      <point x="-34" y="717" type="line"/>
      <point x="92" y="575" type="line"/>
      <point x="210" y="575" type="line"/>
    </contour>
    <contour>
      <point x="247" y="510" type="line"/>
      <point x="50" y="510" type="line"/>
      <point x="50" y="0" type="line"/>
      <point x="247" y="0" type="line"/>
    </contour>
  </outline>
</glyph>
<glyph name="iacute" format="1">
  <advance width="297"/>
  <unicode hex="00ED"/>
  <outline>
    <contour>
      <point x="325" y="720" type="line"/>
      <point x="174" y="720" type="line"/>
      <point x="83" y="575" type="line"/>
      <point x="201" y="575" type="line"/>
      <point x="327" y="717" type="line"/>
    </contour>
    <contour>
      <point x="247" y="510" type="line"/>
      <point x="50" y="510" type="line"/>
      <point x="50" y="0" type="line"/>
      <point x="247" y="0" type="line"/>
    </contour>
  </outline>
</glyph>
<glyph name="ntilde" format="1">
  <advance width="599"/>
  <unicode hex="00F1"/>
  <outline>
    <contour>
      <point x="374" y="521" type="line" smooth="yes"/>
      <point x="278" y="521"/>
      <point x="234" y="460"/>
      <point x="219" y="437" type="curve"/>
      <point x="199" y="511" type="line"/>
      <point x="50" y="511" type="line"/>
      <point x="50" y="0" type="line"/>
      <point x="248" y="0" type="line"/>
      <point x="248" y="320" type="line" smooth="yes"/>
      <point x="248" y="353"/>
      <point x="272" y="380"/>
      <point x="301" y="380" type="curve" smooth="yes"/>
      <point x="330" y="380"/>
      <point x="354" y="353"/>
      <point x="354" y="320" type="curve" smooth="yes"/>
      <point x="354" y="0" type="line"/>
      <point x="552" y="0" type="line"/>
      <point x="552" y="371" type="line" smooth="yes"/>
      <point x="552" y="454"/>
      <point x="485" y="521"/>
      <point x="402" y="521" type="curve" smooth="yes"/>
    </contour>
    <contour>
      <point x="454" y="720" type="line"/>
      <point x="447" y="697"/>
      <point x="429" y="680"/>
      <point x="404" y="680" type="curve" smooth="yes"/>
      <point x="351" y="680"/>
      <point x="295" y="720"/>
      <point x="231" y="720" type="curve" smooth="yes"/>
      <point x="154" y="720"/>
      <point x="91" y="649"/>
      <point x="91" y="577" type="curve"/>
      <point x="172" y="577" type="line"/>
      <point x="179" y="600"/>
      <point x="197" y="617"/>
      <point x="222" y="617" type="curve" smooth="yes"/>
      <point x="235" y="617"/>
      <point x="249" y="614"/>
      <point x="262" y="610" type="curve" smooth="yes"/>
      <point x="304" y="596" type="line" smooth="yes"/>
      <point x="332" y="586"/>
      <point x="363" y="577"/>
      <point x="395" y="577" type="curve" smooth="yes"/>
      <point x="472" y="577"/>
      <point x="535" y="648"/>
      <point x="535" y="720" type="curve"/>
    </contour>
  </outline>
</glyph>
<glyph name="oacute" format="1">
  <advance width="614"/>
  <unicode hex="00F3"/>
  <outline>
    <contour>
      <point x="291" y="521" type="line" smooth="yes"/>
      <point x="139" y="521"/>
      <point x="26" y="417"/>
      <point x="26" y="266" type="curve" smooth="yes"/>
      <point x="26" y="245" type="line" smooth="yes"/>
      <point x="26" y="95"/>
      <point x="139" y="-10"/>
      <point x="291" y="-10" type="curve" smooth="yes"/>
      <point x="323" y="-10" type="line" smooth="yes"/>
      <point x="475" y="-10"/>
      <point x="588" y="93"/>
      <point x="588" y="245" type="curve" smooth="yes"/>
      <point x="588" y="266" type="line" smooth="yes"/>
      <point x="588" y="417"/>
      <point x="475" y="521"/>
      <point x="323" y="521" type="curve" smooth="yes"/>
    </contour>
    <contour>
      <point x="346" y="400"/>
      <point x="376" y="369"/>
      <point x="376" y="330" type="curve" smooth="yes"/>
      <point x="376" y="181" type="line" smooth="yes"/>
      <point x="376" y="142"/>
      <point x="346" y="111"/>
      <point x="307" y="111" type="curve" smooth="yes"/>
      <point x="268" y="111"/>
      <point x="238" y="142"/>
      <point x="238" y="181" type="curve" smooth="yes"/>
      <point x="238" y="330" type="line" smooth="yes"/>
      <point x="238" y="369"/>
      <point x="268" y="400"/>
      <point x="307" y="400" type="curve" smooth="yes"/>
    </contour>
    <contour>
      <point x="340" y="720" type="line"/>
      <point x="249" y="575" type="line"/>
      <point x="367" y="575" type="line"/>
      <point x="493" y="717" type="line"/>
      <point x="491" y="720" type="line"/>
    </contour>
  </outline>
</glyph>
<glyph name="oslash" format="1">
  <advance width="614"/>
  <unicode hex="00F8"/>
  <outline>
    <contour>
      <point x="460" y="569" type="line"/>
      <point x="420" y="505" type="line"/>
      <point x="391" y="516"/>
      <point x="358" y="521"/>
      <point x="323" y="521" type="curve" smooth="yes"/>
      <point x="291" y="521" type="line" smooth="yes"/>
      <point x="139" y="521"/>
      <point x="26" y="417"/>
      <point x="26" y="266" type="curve" smooth="yes"/>
      <point x="26" y="245" type="line" smooth="yes"/>
      <point x="26" y="157"/>
      <point x="64" y="87"/>
      <point x="125" y="42" type="curve"/>
      <point x="63" y="-55" type="line"/>
      <point x="155" y="-55" type="line"/>
      <point x="194" y="6" type="line"/>
      <point x="222" y="-5"/>
      <point x="254" y="-10"/>
      <point x="291" y="-10" type="curve" smooth="yes"/>
      <point x="323" y="-10" type="line" smooth="yes"/>
      <point x="475" y="-10"/>
      <point x="588" y="93"/>
      <point x="588" y="245" type="curve" smooth="yes"/>
      <point x="588" y="266" type="line" smooth="yes"/>
      <point x="588" y="354"/>
      <point x="550" y="425"/>
      <point x="489" y="470" type="curve"/>
      <point x="552" y="569" type="line"/>
    </contour>
    <contour>
      <point x="376" y="181" type="line" smooth="yes"/>
      <point x="376" y="142"/>
      <point x="346" y="111"/>
      <point x="307" y="111" type="curve" smooth="yes"/>
      <point x="292" y="111"/>
      <point x="279" y="115"/>
      <point x="268" y="123" type="curve"/>
      <point x="376" y="292" type="line"/>
    </contour>
    <contour>
      <point x="321" y="400"/>
      <point x="334" y="396"/>
      <point x="345" y="388" type="curve"/>
      <point x="238" y="220" type="line"/>
      <point x="238" y="330" type="line" smooth="yes"/>
      <point x="238" y="369"/>
      <point x="268" y="400"/>
      <point x="307" y="400" type="curve" smooth="yes"/>
    </contour>
    <contour>
      <point x="307" y="511" type="move" name="top"/>
    </contour>
  </outline>
</glyph>
<glyph name="ugrave" format="1">
  <advance width="628"/>
  <unicode hex="00F9"/>
  <outline>
    <contour>
      <point x="350" y="511" type="line"/>
      <point x="350" y="191" type="line" smooth="yes"/>
      <point x="350" y="158"/>
      <point x="326" y="131"/>
      <point x="297" y="131" type="curve" smooth="yes"/>
      <point x="268" y="131"/>
      <point x="244" y="158"/>
      <point x="244" y="191" type="curve" smooth="yes"/>
      <point x="244" y="511" type="line"/>
      <point x="46" y="511" type="line"/>
      <point x="46" y="140" type="line" smooth="yes"/>
      <point x="46" y="57"/>
      <point x="113" y="-10"/>
      <point x="196" y="-10" type="curve" smooth="yes"/>
      <point x="224" y="-10" type="line" smooth="yes"/>
      <point x="295" y="-10"/>
      <point x="351" y="48"/>
      <point x="366" y="71" type="curve"/>
      <point x="385" y="20"/>
      <point x="424" y="-10"/>
      <point x="513" y="-10" type="curve" smooth="yes"/>
      <point x="565" y="-10"/>
      <point x="596" y="0"/>
      <point x="614" y="13" type="curve"/>
      <point x="614" y="120" type="line"/>
      <point x="603" y="114"/>
      <point x="591" y="111"/>
      <point x="579" y="111" type="curve" smooth="yes"/>
      <point x="564" y="111"/>
      <point x="548" y="121"/>
      <point x="548" y="148" type="curve" smooth="yes"/>
      <point x="548" y="511" type="line"/>
    </contour>
    <contour>
      <point x="116" y="720" type="line"/>
      <point x="114" y="717" type="line"/>
      <point x="240" y="575" type="line"/>
      <point x="358" y="575" type="line"/>
      <point x="267" y="720" type="line"/>
    </contour>
  </outline>
</glyph>
<glyph name="iogonek" format="1">
  <advance width="297"/>
  <unicode hex="012F"/>
  <outline>
    <contour>
      <point x="50" y="720" type="line"/>
      <point x="50" y="577" type="line"/>
      <point x="247" y="577" type="line"/>
      <point x="247" y="720" type="line"/>
    </contour>
    <contour>
      <point x="247" y="510" type="line"/>
      <point x="50" y="510" type="line"/>
      <point x="50" y="0" type="line"/>
      <point x="247" y="0" type="line"/>
    </contour>
    <component base="ogonek" xOffset="45"/>
    <contour>
      <point x="237" y="10" type="move" name="ogonek"/>
    </contour>
    <contour>
      <point x="149" y="511" type="move" name="top"/>
    </contour>
  </outline>
</glyph>
<glyph name="Lslash" format="1">
  <advance width="562"/>
  <unicode hex="0141"/>
  <outline>
    <contour>
      <point x="287" y="686" type="line"/>
      <point x="75" y="686" type="line"/>
      <point x="75" y="393" type="line"/>
      <point x="9" y="360" type="line"/>
      <point x="9" y="255" type="line"/>
      <point x="75" y="288" type="line"/>
      <point x="75" y="0" type="line"/>
      <point x="556" y="0" type="line"/>
      <point x="526" y="168" type="line"/>
      <point x="287" y="168" type="line"/>
      <point x="287" y="394" type="line"/>
      <point x="378" y="439" type="line"/>
      <point x="378" y="544" type="line"/>
      <point x="287" y="499" type="line"/>
    </contour>
  </outline>
</glyph>
<glyph name="OE" format="1">
  <advance width="991"/>
  <unicode hex="0152"/>
  <outline>
    <contour>
      <point x="331" y="694" type="line" smooth="yes"/>
      <point x="165" y="694"/>
      <point x="31" y="560"/>
      <point x="31" y="394" type="curve" smooth="yes"/>
      <point x="31" y="290" type="line" smooth="yes"/>
      <point x="31" y="124"/>
      <point x="165" y="-10"/>
      <point x="331" y="-10" type="curve" smooth="yes"/>
      <point x="387" y="-10" type="line" smooth="yes"/>
      <point x="414" y="-10"/>
      <point x="438" y="-7"/>
      <point x="462" y="0" type="curve"/>
      <point x="977" y="0" type="line"/>
      <point x="947" y="157" type="line"/>
      <point x="672" y="157" type="line"/>
      <point x="672" y="266" type="line"/>
      <point x="916" y="266" type="line"/>
      <point x="916" y="419" type="line"/>
      <point x="672" y="419" type="line"/>
      <point x="672" y="528" type="line"/>
      <point x="927" y="528" type="line"/>
      <point x="967" y="686" type="line"/>
      <point x="463" y="686" type="line"/>
      <point x="438" y="691"/>
      <point x="412" y="694"/>
      <point x="387" y="694" type="curve" smooth="yes"/>
    </contour>
    <contour>
      <point x="362" y="540" type="line" smooth="yes"/>
      <point x="418" y="540"/>
      <point x="462" y="496"/>
      <point x="462" y="440" type="curve" smooth="yes"/>
      <point x="462" y="247" type="line" smooth="yes"/>
      <point x="462" y="191"/>
      <point x="418" y="147"/>
      <point x="362" y="147" type="curve" smooth="yes"/>
      <point x="357" y="147" type="line" smooth="yes"/>
      <point x="301" y="147"/>
      <point x="257" y="191"/>
      <point x="257" y="247" type="curve" smooth="yes"/>
      <point x="257" y="440" type="line" smooth="yes"/>
      <point x="257" y="496"/>
      <point x="301" y="540"/>
      <point x="357" y="540" type="curve" smooth="yes"/>
    </contour>
    <contour>
      <point x="496" y="686" type="move" name="top"/>
    </contour>
  </outline>
</glyph>
<glyph name="scaron" format="1">
  <advance width="559"/>
  <unicode hex="0161"/>
  <outline>
    <contour>
      <point x="273" y="521" type="line" smooth="yes"/>
      <point x="169" y="521"/>
      <point x="38" y="472"/>
      <point x="38" y="349" type="curve" smooth="yes"/>
      <point x="38" y="134"/>
      <point x="356" y="217"/>
      <point x="356" y="142" type="curve" smooth="yes"/>
      <point x="356" y="112"/>
      <point x="290" y="111"/>
      <point x="271" y="111" type="curve" smooth="yes"/>
      <point x="236" y="111"/>
      <point x="185" y="120"/>
      <point x="185" y="163" type="curve" smooth="yes"/>
      <point x="185" y="167" type="line"/>
      <point x="23" y="167" type="line"/>
      <point x="22" y="164"/>
      <point x="22" y="161"/>
      <point x="22" y="158" type="curve" smooth="yes"/>
      <point x="22" y="149" type="line" smooth="yes"/>
      <point x="22" y="40"/>
      <point x="136" y="-10"/>
      <point x="243" y="-10" type="curve" smooth="yes"/>
      <point x="295" y="-10" type="line" smooth="yes"/>
      <point x="412" y="-10"/>
      <point x="532" y="34"/>
      <point x="532" y="170" type="curve" smooth="yes"/>
      <point x="532" y="393"/>
      <point x="211" y="301"/>
      <point x="211" y="374" type="curve" smooth="yes"/>
      <point x="211" y="403"/>
      <point x="266" y="403"/>
      <point x="285" y="403" type="curve" smooth="yes"/>
      <point x="313" y="403"/>
      <point x="355" y="394"/>
      <point x="355" y="358" type="curve"/>
      <point x="519" y="358" type="line"/>
      <point x="519" y="362"/>
      <point x="521" y="370"/>
      <point x="521" y="384" type="curve" smooth="yes"/>
      <point x="521" y="478"/>
      <point x="392" y="521"/>
      <point x="304" y="521" type="curve" smooth="yes"/>
    </contour>
    <contour>
      <point x="357" y="720" type="line"/>
      <point x="283" y="643" type="line"/>
      <point x="209" y="720" type="line"/>
      <point x="79" y="720" type="line"/>
      <point x="218" y="575" type="line"/>
      <point x="346" y="575" type="line"/>
      <point x="485" y="720" type="line"/>
    </contour>
  </outline>
</glyph>
<glyph name="Ydieresis" format="1">
  <advance width="646"/>
  <unicode hex="0178"/>
  <outline>
    <contour>
      <point x="301" y="897" type="line"/>
      <point x="149" y="897" type="line"/>
      <point x="149" y="750" type="line"/>
      <point x="301" y="750" type="line"/>
    </contour>
    <contour>
      <point x="521" y="897" type="line"/>
      <point x="369" y="897" type="line"/>
      <point x="369" y="750" type="line"/>
      <point x="521" y="750" type="line"/>
    </contour>
    <contour>
      <point x="655" y="686" type="line"/>
      <point x="440" y="686" type="line"/>
      <point x="335" y="461" type="line"/>
      <point x="330" y="461" type="line"/>
      <point x="227" y="686" type="line"/>
      <point x="-9" y="686" type="line"/>
      <point x="219" y="262" type="line"/>
      <point x="219" y="0" type="line"/>
      <point x="428" y="0" type="line"/>
      <point x="428" y="262" type="line"/>
    </contour>
  </outline>
</glyph>
<glyph name="zcaron" format="1">
  <advance width="498"/>
  <unicode hex="017E"/>
  <outline>
    <contour>
      <point x="33" y="511" type="line"/>
      <point x="33" y="387" type="line"/>
      <point x="210" y="387" type="line"/>
      <point x="22" y="63" type="line"/>
      <point x="22" y="0" type="line"/>
      <point x="474" y="0" type="line"/>
      <point x="474" y="124" type="line"/>
      <point x="277" y="124" type="line"/>
      <point x="466" y="451" type="line"/>
      <point x="466" y="511" type="line"/>
    </contour>
    <contour>
      <point x="323" y="720" type="line"/>
      <point x="249" y="643" type="line"/>
      <point x="175" y="720" type="line"/>
      <point x="45" y="720" type="line"/>
      <point x="184" y="575" type="line"/>
      <point x="312" y="575" type="line"/>
      <point x="451" y="720" type="line"/>
    </contour>
  </outline>
</glyph>
<glyph name="circumflex" format="1">
  <advance width="540"/>
  <unicode hex="02C6"/>
  <outline>
    <contour>
      <point x="204" y="720" type="line"/>
      <point x="65" y="575" type="line"/>
      <point x="193" y="575" type="line"/>
      <point x="267" y="652" type="line"/>
      <point x="341" y="575" type="line"/>
      <point x="471" y="575" type="line"/>
      <point x="332" y="720" type="line"/>
    </contour>
    <contour>
      <point x="268" y="511" type="move" name="_top"/>
    </contour>
  </outline>
</glyph>
<glyph name="caron" format="1">
  <advance width="540"/>
  <unicode hex="02C7"/>
  <outline>
    <contour>
      <point x="343" y="720" type="line"/>
      <point x="269" y="643" type="line"/>
      <point x="195" y="720" type="line"/>
      <point x="65" y="720" type="line"/>
      <point x="204" y="575" type="line"/>
      <point x="332" y="575" type="line"/>
      <point x="471" y="720" type="line"/>
    </contour>
    <contour>
      <point x="268" y="511" type="move" name="_top"/>
    </contour>
  </outline>
</glyph>
<glyph name="ogonek" format="1">
  <advance width="340"/>
  <unicode hex="02DB"/>
  <outline>
    <contour>
      <point x="123" y="0" type="line"/>
      <point x="99" y="-16"/>
      <point x="69" y="-39"/>
      <point x="69" y="-71" type="curve" smooth="yes"/>
      <point x="69" y="-126"/>
      <point x="120" y="-143"/>
      <point x="166" y="-143" type="curve" smooth="yes"/>
      <point x="203" y="-143"/>
      <point x="238" y="-135"/>
      <point x="270" y="-119" type="curve"/>
      <point x="257" y="-76" type="line"/>
      <point x="236" y="-84"/>
      <point x="213" y="-90"/>
      <point x="190" y="-90" type="curve" smooth="yes"/>
      <point x="169" y="-90"/>
      <point x="146" y="-83"/>
      <point x="146" y="-56" type="curve" smooth="yes"/>
      <point x="146" y="-29"/>
      <point x="174" y="-12"/>
      <point x="193" y="0" type="curve"/>
    </contour>
    <contour>
      <point x="192" y="10" type="move" name="_ogonek"/>
    </contour>
  </outline>
</glyph>
<glyph name="tilde" format="1">
  <advance width="333"/>
  <unicode hex="02DC"/>
  <outline>
    <contour>
      <point x="331" y="719" type="line"/>
      <point x="324" y="696"/>
      <point x="306" y="679"/>
      <point x="281" y="679" type="curve" smooth="yes"/>
      <point x="228" y="679"/>
      <point x="172" y="719"/>
      <point x="108" y="719" type="curve" smooth="yes"/>
      <point x="31" y="719"/>
      <point x="-32" y="648"/>
      <point x="-32" y="576" type="curve"/>
      <point x="49" y="576" type="line"/>
      <point x="56" y="599"/>
      <point x="74" y="616"/>
      <point x="99" y="616" type="curve"/>
      <point x="112" y="615"/>
      <point x="126" y="614"/>
      <point x="140" y="610" type="curve" smooth="yes"/>
      <point x="182" y="596" type="line" smooth="yes"/>
      <point x="211" y="586"/>
      <point x="239" y="576"/>
      <point x="272" y="576" type="curve" smooth="yes"/>
      <point x="349" y="576"/>
      <point x="412" y="647"/>
      <point x="412" y="719" type="curve"/>
    </contour>
    <contour>
      <point x="190" y="511" type="move" name="_top"/>
    </contour>
  </outline>
</glyph>
<glyph name="hungarumlaut" format="1">
  <advance width="555"/>
  <unicode hex="02DD"/>
  <outline>
    <contour>
      <point x="360" y="720" type="line"/>
      <point x="269" y="575" type="line"/>
      <point x="387" y="575" type="line"/>
      <point x="513" y="717" type="line"/>
      <point x="511" y="720" type="line"/>
    </contour>
    <contour>
      <point x="133" y="720" type="line"/>
      <point x="42" y="575" type="line"/>
      <point x="160" y="575" type="line"/>
      <point x="286" y="717" type="line"/>
      <point x="284" y="720" type="line"/>
    </contour>
    <contour>
      <point x="248" y="511" type="move" name="_top"/>
    </contour>
  </outline>
</glyph>
<glyph name="commaaccent" format="1">
  <advance width="287"/>
  <unicode hex="0326"/>
  <outline>
    <contour>
      <point x="48" y="-20" type="line"/>
      <point x="48" y="-171" type="line"/>
      <point x="133" y="-171" type="line"/>
      <point x="117" y="-250" type="line"/>
      <point x="211" y="-250" type="line"/>
      <point x="239" y="-139" type="line"/>
      <point x="239" y="-20" type="line"/>
    </contour>
    <contour>
      <point x="144" y="0" type="move" name="_bottom"/>
    </contour>
  </outline>
</glyph>
<glyph name="endash" format="1">
  <advance width="598"/>
  <unicode hex="2013"/>
  <outline>
    <contour>
      <point x="49" y="354" type="line"/>
      <point x="49" y="196" type="line"/>
      <point x="549" y="196" type="line"/>
      <point x="549" y="354" type="line"/>
    </contour>
  </outline>
</glyph>
<glyph name="quotesinglbase" format="1">
  <advance width="287"/>
  <unicode hex="201A"/>
  <outline>
    <contour>
      <point x="48" y="183" type="line"/>
      <point x="48" y="0" type="line"/>
      <point x="132" y="0" type="line"/>
      <point x="95" y="-165" type="line"/>
      <point x="189" y="-165" type="line"/>
      <point x="239" y="22" type="line"/>
      <point x="239" y="183" type="line"/>
    </contour>
  </outline>
</glyph>
<glyph name="dagger" format="1">
  <advance width="569"/>
  <unicode hex="2020"/>
  <outline>
    <contour>
      <point x="213" y="686" type="line"/>
      <point x="233" y="490" type="line"/>
      <point x="25" y="510" type="line"/>
      <point x="25" y="368" type="line"/>
      <point x="233" y="388" type="line"/>
      <point x="233" y="-161" type="line"/>
      <point x="356" y="-161" type="line"/>
      <point x="356" y="388" type="line"/>
      <point x="544" y="368" type="line"/>
      <point x="544" y="510" type="line"/>
      <point x="336" y="490" type="line"/>
      <point x="356" y="686" type="line"/>
    </contour>
  </outline>
</glyph>
<glyph name="guilsinglleft" format="1">
  <advance width="261"/>
  <unicode hex="2039"/>
  <outline>
    <contour>
      <point x="150" y="511" type="line"/>
      <point x="30" y="337" type="line"/>
      <point x="150" y="163" type="line"/>
      <point x="224" y="163" type="line"/>
      <point x="139" y="337" type="line"/>
      <point x="224" y="511" type="line"/>
    </contour>
  </outline>
</glyph>
<glyph name="guilsinglright" format="1">
  <advance width="261"/>
  <unicode hex="203A"/>
  <outline>
    <contour>
      <point x="37" y="511" type="line"/>
      <point x="122" y="337" type="line"/>
      <point x="37" y="163" type="line"/>
      <point x="111" y="163" type="line"/>
      <point x="231" y="337" type="line"/>
      <point x="111" y="511" type="line"/>
    </contour>
  </outline>
</glyph>
<glyph name="trademark" format="1">
  <advance width="1006"/>
  <unicode hex="2122"/>
  <outline>
    <contour>
      <point x="748" y="686" type="line"/>
      <point x="691" y="454" type="line"/>
      <point x="689" y="454" type="line"/>
      <point x="632" y="686" type="line"/>
      <point x="432" y="686" type="line"/>
      <point x="432" y="288" type="line"/>
      <point x="544" y="288" type="line"/>
      <point x="544" y="590" type="line"/>
      <point x="546" y="563" type="line"/>
      <point x="615" y="288" type="line"/>
      <point x="755" y="288" type="line"/>
      <point x="824" y="563" type="line"/>
      <point x="828" y="563" type="line"/>
      <point x="828" y="288" type="line"/>
      <point x="948" y="288" type="line"/>
      <point x="948" y="686" type="line"/>
    </contour>
    <contour>
      <point x="47" y="686" type="line"/>
      <point x="47" y="590" type="line"/>
      <point x="161" y="590" type="line"/>
      <point x="161" y="288" type="line"/>
      <point x="283" y="288" type="line"/>
      <point x="283" y="590" type="line"/>
      <point x="397" y="590" type="line"/>
      <point x="397" y="686" type="line"/>
    </contour>
  </outline>
</glyph>
<glyph name="Ohm" format="1">
  <advance width="766"/>
  <unicode hex="2126"/>
  <outline>
    <contour>
      <point x="355" y="694" type="line" smooth="yes"/>
      <point x="189" y="694"/>
      <point x="55" y="560"/>
      <point x="55" y="394" type="curve" smooth="yes"/>
      <point x="55" y="350" type="line" smooth="yes"/>
      <point x="55" y="270"/>
      <point x="95" y="202"/>
      <point x="160" y="142" type="curve"/>
      <point x="48" y="162" type="line"/>
      <point x="37" y="162" type="line"/>
      <point x="37" y="0" type="line"/>
      <point x="342" y="0" type="line"/>
      <point x="342" y="85" type="line"/>
      <point x="306" y="100"/>
      <point x="281" y="136"/>
      <point x="281" y="177" type="curve" smooth="yes"/>
      <point x="281" y="440" type="line" smooth="yes"/>
      <point x="281" y="496"/>
      <point x="325" y="540"/>
      <point x="381" y="540" type="curve" smooth="yes"/>
      <point x="386" y="540" type="line" smooth="yes"/>
      <point x="442" y="540"/>
      <point x="486" y="496"/>
      <point x="486" y="440" type="curve" smooth="yes"/>
      <point x="486" y="177" type="line" smooth="yes"/>
      <point x="486" y="134"/>
      <point x="460" y="100"/>
      <point x="424" y="85" type="curve"/>
      <point x="424" y="0" type="line"/>
      <point x="729" y="0" type="line"/>
      <point x="729" y="162" type="line"/>
      <point x="718" y="162" type="line"/>
      <point x="605" y="142" type="line"/>
      <point x="670" y="202"/>
      <point x="711" y="270"/>
      <point x="711" y="350" type="curve" smooth="yes"/>
      <point x="711" y="394" type="line" smooth="yes"/>
      <point x="711" y="560"/>
      <point x="577" y="694"/>
      <point x="411" y="694" type="curve" smooth="yes"/>
    </contour>
  </outline>
</glyph>
<glyph name="partialdiff" format="1">
  <advance width="618"/>
  <unicode hex="2202"/>
  <outline>
    <contour>
      <point x="156" y="696" type="line"/>
      <point x="156" y="546" type="line"/>
      <point x="298" y="546" type="line" smooth="yes"/>
      <point x="339" y="546"/>
      <point x="375" y="512"/>
      <point x="375" y="471" type="curve" smooth="yes"/>
      <point x="375" y="385" type="line"/>
      <point x="340" y="422"/>
      <point x="287" y="437"/>
      <point x="250" y="437" type="curve" smooth="yes"/>
      <point x="126" y="437"/>
      <point x="26" y="367"/>
      <point x="26" y="230" type="curve" smooth="yes"/>
      <point x="26" y="85"/>
      <point x="140" y="-10"/>
      <point x="284" y="-10" type="curve" smooth="yes"/>
      <point x="312" y="-10" type="line" smooth="yes"/>
      <point x="456" y="-10"/>
      <point x="572" y="96"/>
      <point x="572" y="240" type="curve" smooth="yes"/>
      <point x="572" y="446" type="line" smooth="yes"/>
      <point x="572" y="590"/>
      <point x="456" y="696"/>
      <point x="312" y="696" type="curve" smooth="yes"/>
    </contour>
    <contour>
      <point x="341" y="321"/>
      <point x="375" y="287"/>
      <point x="375" y="246" type="curve" smooth="yes"/>
      <point x="375" y="205" type="line" smooth="yes"/>
      <point x="375" y="164"/>
      <point x="341" y="130"/>
      <point x="300" y="130" type="curve" smooth="yes"/>
      <point x="294" y="130" type="line" smooth="yes"/>
      <point x="253" y="130"/>
      <point x="219" y="164"/>
      <point x="219" y="205" type="curve" smooth="yes"/>
      <point x="219" y="246" type="line" smooth="yes"/>
      <point x="219" y="287"/>
      <point x="253" y="321"/>
      <point x="294" y="321" type="curve" smooth="yes"/>
      <point x="300" y="321" type="line" smooth="yes"/>
    </contour>
  </outline>
</glyph>
<glyph name="increment" format="1">
  <advance width="634"/>
  <unicode hex="2206"/>
  <outline>
    <contour>
      <point x="247" y="686" type="line"/>
      <point x="25" y="93" type="line"/>
      <point x="25" y="0" type="line"/>
      <point x="609" y="0" type="line"/>
      <point x="609" y="93" type="line"/>
      <point x="386" y="686" type="line"/>
    </contour>
    <contour>
      <point x="465" y="109" type="line"/>
      <point x="169" y="109" type="line"/>
      <point x="318" y="525" type="line"/>
    </contour>
  </outline>
</glyph>
<glyph name="product" format="1">
  <advance width="896"/>
  <unicode hex="220F"/>
  <outline>
    <contour>
      <point x="25" y="731" type="line"/>
      <point x="25" y="551" type="line"/>
      <point x="142" y="551" type="line"/>
      <point x="142" y="-101" type="line"/>
      <point x="356" y="-101" type="line"/>
      <point x="356" y="551" type="line"/>
      <point x="539" y="551" type="line"/>
      <point x="539" y="-101" type="line"/>
      <point x="754" y="-101" type="line"/>
      <point x="754" y="551" type="line"/>
      <point x="871" y="551" type="line"/>
      <point x="871" y="731" type="line"/>
    </contour>
  </outline>
</glyph>
<glyph name="minus" format="1">
  <advance width="615"/>
  <unicode hex="2212"/>
  <outline>
    <contour>
      <point x="51" y="363" type="line"/>
      <point x="51" y="213" type="line"/>
      <point x="563" y="213" type="line"/>
      <point x="563" y="363" type="line"/>
    </contour>
  </outline>
</glyph>
<glyph name="infinity" format="1">
  <advance width="823"/>
  <unicode hex="221E"/>
  <outline>
    <contour>
      <point x="530" y="476"/>
      <point x="481" y="438"/>
      <point x="448" y="401" type="curve" smooth="yes"/>
      <point x="419" y="368" type="line"/>
      <point x="367" y="440"/>
      <point x="310" y="476"/>
      <point x="229" y="476" type="curve" smooth="yes"/>
      <point x="121" y="476"/>
      <point x="39" y="398"/>
      <point x="39" y="281" type="curve" smooth="yes"/>
      <point x="39" y="164"/>
      <point x="125" y="91"/>
      <point x="218" y="91" type="curve" smooth="yes"/>
      <point x="302" y="91"/>
      <point x="356" y="136"/>
      <point x="409" y="204" type="curve"/>
      <point x="478" y="104"/>
      <point x="551" y="91"/>
      <point x="601" y="91" type="curve" smooth="yes"/>
      <point x="694" y="91"/>
      <point x="784" y="162"/>
      <point x="784" y="290" type="curve" smooth="yes"/>
      <point x="784" y="405"/>
      <point x="699" y="476"/>
      <point x="601" y="476" type="curve" smooth="yes"/>
    </contour>
    <contour>
      <point x="271" y="378"/>
      <point x="300" y="356"/>
      <point x="324" y="322" type="curve" smooth="yes"/>
      <point x="356" y="277" type="line"/>
      <point x="330" y="246" type="line" smooth="yes"/>
      <point x="305" y="217"/>
      <point x="267" y="190"/>
      <point x="229" y="190" type="curve" smooth="yes"/>
      <point x="181" y="190"/>
      <point x="141" y="233"/>
      <point x="141" y="282" type="curve" smooth="yes"/>
      <point x="141" y="346"/>
      <point x="180" y="378"/>
      <point x="227" y="378" type="curve" smooth="yes"/>
    </contour>
    <contour>
      <point x="648" y="378"/>
      <point x="681" y="337"/>
      <point x="681" y="281" type="curve" smooth="yes"/>
      <point x="681" y="241"/>
      <point x="653" y="190"/>
      <point x="601" y="190" type="curve" smooth="yes"/>
      <point x="558" y="190"/>
      <point x="528" y="205"/>
      <point x="469" y="285" type="curve"/>
      <point x="498" y="320" type="line" smooth="yes"/>
      <point x="524" y="351"/>
      <point x="556" y="378"/>
      <point x="595" y="378" type="curve" smooth="yes"/>
    </contour>
  </outline>
</glyph>
<glyph name="integral" format="1">
  <advance width="320"/>
  <unicode hex="222B"/>
  <outline>
    <contour>
      <point x="220" y="751" type="line" smooth="yes"/>
      <point x="152" y="751"/>
      <point x="79" y="716"/>
      <point x="79" y="639" type="curve" smooth="yes"/>
      <point x="79" y="491"/>
      <point x="92" y="164"/>
      <point x="105" y="-141" type="curve"/>
      <point x="105" y="-180"/>
      <point x="48" y="-182"/>
      <point x="20" y="-182" type="curve"/>
      <point x="20" y="-250" type="line"/>
      <point x="101" y="-250" type="line" smooth="yes"/>
      <point x="169" y="-250"/>
      <point x="242" y="-215"/>
      <point x="242" y="-138" type="curve" smooth="yes"/>
      <point x="242" y="-60"/>
      <point x="234" y="136"/>
      <point x="229" y="311" type="curve"/>
      <point x="216" y="642" type="line"/>
      <point x="216" y="682"/>
      <point x="273" y="683"/>
      <point x="301" y="683" type="curve"/>
      <point x="301" y="751" type="line"/>
    </contour>
  </outline>
</glyph>
<glyph name="notequal" format="1">
  <advance width="615"/>
  <unicode hex="2260"/>
  <outline>
    <contour>
      <point x="428" y="511" type="line"/>
      <point x="372" y="429" type="line"/>
      <point x="51" y="429" type="line"/>
      <point x="51" y="301" type="line"/>
      <point x="285" y="301" type="line"/>
      <point x="222" y="209" type="line"/>
      <point x="51" y="209" type="line"/>
      <point x="51" y="81" type="line"/>
      <point x="134" y="81" type="line"/>
      <point x="79" y="0" type="line"/>
      <point x="190" y="0" type="line"/>
      <point x="245" y="81" type="line"/>
      <point x="563" y="81" type="line"/>
      <point x="563" y="209" type="line"/>
      <point x="331" y="209" type="line"/>
      <point x="394" y="301" type="line"/>
      <point x="563" y="301" type="line"/>
      <point x="563" y="429" type="line"/>
      <point x="480" y="429" type="line"/>
      <point x="536" y="511" type="line"/>
    </contour>
  </outline>
</glyph>
<glyph name="fi" format="1">
  <advance width="701"/>
  <unicode hex="FB01"/>
  <outline>
    <contour>
      <point x="164" y="728"/>
      <point x="89" y="685"/>
      <point x="89" y="577" type="curve" smooth="yes"/>
      <point x="89" y="511" type="line"/>
      <point x="25" y="511" type="line"/>
      <point x="25" y="369" type="line"/>
      <point x="89" y="369" type="line"/>
      <point x="89" y="0" type="line"/>
      <point x="287" y="0" type="line"/>
      <point x="287" y="369" type="line"/>
      <point x="407" y="369" type="line"/>
      <point x="407" y="511" type="line"/>
      <point x="287" y="511" type="line"/>
      <point x="287" y="548" type="line" smooth="yes"/>
      <point x="287" y="603"/>
      <point x="319" y="606"/>
      <point x="344" y="606" type="curve" smooth="yes"/>
      <point x="359" y="606"/>
      <point x="391" y="601"/>
      <point x="406" y="596" type="curve"/>
      <point x="406" y="706" type="line"/>
      <point x="373" y="720"/>
      <point x="306" y="728"/>
      <point x="272" y="728" type="curve" smooth="yes"/>
    </contour>
    <contour>
      <point x="455" y="510" type="line"/>
      <point x="455" y="0" type="line"/>
      <point x="652" y="0" type="line"/>
      <point x="652" y="510" type="line"/>
    </contour>
    <contour>
      <point x="455" y="720" type="line"/>
      <point x="455" y="577" type="line"/>
      <point x="652" y="577" type="line"/>
      <point x="652" y="720" type="line"/>
    </contour>
  </outline>
</glyph>
